<svg width="496" height="111" viewBox="0 0 496 111" fill="none" xmlns="http://www.w3.org/2000/svg">
<rect y="42.7935" width="491" height="68" rx="12" transform="rotate(-5 0 42.7935)" fill="#E5FF6E"/>
<path d="M44.1567 91.1289C43.0728 91.2237 42.1406 91.0323 41.36 90.5545C40.6085 90.042 40.0474 89.3202 39.6768 88.3889C39.3437 87.5187 39.0993 86.5603 38.9435 85.5139C38.8196 84.4647 38.6739 82.9838 38.5066 81.0711C38.3504 79.2859 38.155 77.9699 37.9203 77.1232C37.7175 76.2736 37.3451 75.8725 36.8032 75.9199C36.1656 75.9757 35.7444 76.3017 35.5396 76.8978C35.332 77.462 35.2728 78.2542 35.362 79.2743C35.4429 80.1988 35.6973 81.6381 36.1253 83.5922C36.1906 83.972 36.3074 84.5721 36.4755 85.3925C36.6437 86.213 36.7514 86.8942 36.7989 87.4361C36.9327 88.9663 36.6769 90.0808 36.0313 90.7798C35.4177 91.4759 34.4573 91.8811 33.1503 91.9955C31.5883 92.1321 30.1596 91.4059 28.8641 89.8168C27.5687 88.2276 26.5239 86.199 25.7298 83.7308C24.9329 81.2307 24.427 78.7534 24.2123 76.2988C23.9557 73.366 24.1316 70.6041 24.7401 68.0132C25.3805 65.4195 26.4786 63.2837 28.0342 61.6057C29.6218 59.925 31.6269 58.9786 34.0497 58.7666C36.0899 58.5882 37.7715 59.0835 39.0944 60.2526C40.4145 61.3899 41.3599 62.833 41.9305 64.5819C42.1278 62.7979 42.7763 61.2154 43.8761 59.8343C45.0078 58.4504 46.5778 57.6706 48.5862 57.4949C50.977 57.2857 53.0828 57.8563 54.9034 59.2068C56.7531 60.5226 58.24 62.4644 59.3641 65.0322C60.52 67.5972 61.25 70.6171 61.554 74.0918C61.752 76.3552 61.6382 78.7261 61.2126 81.2046C60.7843 83.6513 60.066 85.7218 59.0578 87.4161C58.0496 89.1104 56.8124 90.0217 55.346 90.15C54.0071 90.2671 52.9577 90.0216 52.1978 89.4136C51.4379 88.8055 50.991 87.7364 50.8572 86.2062C50.7958 85.5049 50.809 84.1867 50.8966 82.2517C50.9732 80.1892 50.9724 78.7116 50.8943 77.819C50.713 75.747 50.0645 74.7597 48.9488 74.8573C48.375 74.9075 48.0488 75.4018 47.9703 76.3403C47.9237 77.2759 47.975 78.7811 48.1245 80.856C48.2611 82.418 48.3436 83.7278 48.3719 84.7854C48.3974 85.8111 48.3362 86.764 48.1883 87.6443C48.0142 88.5911 47.5697 89.3848 46.8548 90.0256C46.1718 90.6635 45.2724 91.0313 44.1567 91.1289ZM72.97 88.6081C70.4835 88.8256 68.3945 88.4462 66.703 87.47C65.0087 86.4618 64.0681 84.8898 63.8812 82.7539C63.7194 80.905 64.404 79.3675 65.935 78.1414C67.466 76.9153 69.4428 76.1963 71.8656 75.9843C72.7582 75.9062 73.594 75.9134 74.373 76.0058C75.1811 76.0636 75.737 76.1756 76.0406 76.3418C75.9709 75.5448 75.579 74.9206 74.8649 74.4691C74.1481 73.9858 73.1043 73.804 71.7335 73.924C71.1278 73.977 70.6379 74.068 70.2637 74.1971C69.8895 74.3262 69.4877 74.5059 69.0581 74.7362C68.6286 74.9665 68.2267 75.1463 67.8525 75.2754C67.5102 75.4017 67.0362 75.4913 66.4305 75.5443C65.4104 75.6336 64.5912 75.4483 63.9727 74.9884C63.3515 74.4967 62.9935 73.7089 62.8987 72.625C62.7899 71.3818 63.1442 70.2908 63.9614 69.3519C64.8106 68.4104 65.9024 67.6724 67.237 67.138C68.5687 66.5718 69.9199 66.2287 71.2907 66.1088C74.0003 65.8718 76.3083 66.1838 78.2146 67.0449C80.15 67.8714 81.6206 69.0758 82.6263 70.6582C83.6639 72.2377 84.2706 74.0317 84.4463 76.04C84.5411 77.1239 84.5333 78.1364 84.423 79.0776C84.3444 80.016 84.1841 80.7528 83.9418 81.288C84.4215 81.6315 84.7953 82.0485 85.0631 82.539C85.3627 83.0267 85.5363 83.5416 85.5837 84.0835C85.6645 85.008 85.4155 85.8328 84.8365 86.558C84.2894 87.2805 83.5058 87.6863 82.4857 87.7756C81.7206 87.8425 81.0892 87.7853 80.5915 87.604C80.0938 87.4227 79.5531 87.1166 78.9693 86.6859C78.2142 87.2338 77.3682 87.6611 76.4314 87.968C75.5264 88.272 74.3727 88.4854 72.97 88.6081ZM73.5038 83.6949C74.1733 83.6363 74.6867 83.4468 75.0441 83.1264C75.4335 82.8033 75.61 82.4345 75.5737 82.0201C75.5375 81.6057 75.2996 81.2731 74.8601 81.0225C74.4524 80.769 73.9139 80.6716 73.2444 80.7302C72.575 80.7887 72.0456 80.9796 71.6563 81.3028C71.2989 81.6231 71.1383 81.9905 71.1745 82.405C71.2108 82.8194 71.4327 83.1533 71.8404 83.4067C72.2799 83.6574 72.8344 83.7534 73.5038 83.6949ZM96.5186 86.5478C93.7133 86.7933 91.4414 86.5263 89.7028 85.7468C87.9643 84.9674 87.0308 83.8445 86.9025 82.3781C86.8189 81.4217 87.0735 80.6606 87.6665 80.0948C88.2885 79.4943 89.1095 79.1494 90.1297 79.0602C90.7035 79.01 91.1727 79.0492 91.5373 79.1779C91.9019 79.3067 92.2721 79.4991 92.6478 79.7554C92.9224 79.9562 93.1435 80.0975 93.3113 80.1791C93.5109 80.258 93.7383 80.2863 93.9933 80.264C94.6627 80.2055 94.9765 79.9371 94.9347 79.4589C94.8956 79.0126 94.691 78.6932 94.3208 78.5008C93.9479 78.2764 93.3157 78.0266 92.4243 77.7512C91.5995 77.5022 91.0539 77.325 90.7878 77.2198C89.26 76.6468 88.1036 75.9128 87.3186 75.0178C86.5336 74.1228 86.0937 73.1334 85.9989 72.0495C85.8929 70.8381 86.2229 69.6529 86.9888 68.4937C87.7837 67.2999 88.9489 66.2985 90.4843 65.4896C92.0487 64.6461 93.8829 64.1323 95.9868 63.9482C97.8039 63.7892 99.4679 63.9006 100.979 64.2824C102.522 64.6613 103.763 65.2595 104.702 66.0768C105.638 66.8622 106.152 67.7809 106.244 68.8328C106.33 69.8211 106.077 70.5981 105.484 71.1639C104.923 71.727 104.116 72.0545 103.064 72.1465C102.65 72.1828 102.312 72.1802 102.052 72.1388C101.82 72.0626 101.505 71.9457 101.106 71.7879C100.871 71.6799 100.622 71.5892 100.359 71.5159C100.128 71.4398 99.8683 71.4143 99.5814 71.4394C99.3264 71.4617 99.1116 71.5769 98.9371 71.7849C98.7598 71.961 98.6823 72.1766 98.7046 72.4316C98.7464 72.9098 99.1277 73.2298 99.8486 73.3915C101.751 73.8355 103.3 74.4709 104.496 75.2977C105.725 76.1218 106.41 77.3467 106.553 78.9725C106.734 81.0446 105.904 82.7554 104.062 84.1051C102.253 85.4519 99.7383 86.2662 96.5186 86.5478ZM120.856 84.3704C118.816 84.5489 116.844 84.2235 114.94 83.3943C113.066 82.5304 111.512 81.2851 110.277 79.6585C109.043 78.0319 108.332 76.1507 108.145 74.0148C107.95 71.7834 108.306 69.7928 109.213 68.0431C110.149 66.2587 111.454 64.8435 113.13 63.7975C114.837 62.7488 116.71 62.1351 118.751 61.9566C120.695 61.7865 122.482 62.0156 124.111 62.6441C125.74 63.2725 127.039 64.1707 128.009 65.3386C128.975 66.4747 129.517 67.7122 129.634 69.051C129.732 70.1668 129.457 71.0582 128.808 71.7252C128.192 72.3895 127.214 72.7802 125.875 72.8973C125.174 72.9587 124.621 72.8786 124.216 72.657C123.811 72.4354 123.379 72.0878 122.92 71.614C122.496 71.1693 122.098 70.8507 121.728 70.6582C121.387 70.4311 120.914 70.344 120.308 70.397C119.447 70.4723 118.741 70.8393 118.188 71.498C117.632 72.1248 117.395 72.9004 117.476 73.8249C117.56 74.7812 117.914 75.5212 118.538 76.0448C119.193 76.5656 119.968 76.787 120.86 76.7089C121.434 76.6587 121.873 76.5399 122.178 76.3527C122.483 76.1654 122.811 75.8797 123.163 75.4955C123.576 75.074 123.967 74.7667 124.335 74.5739C124.701 74.3491 125.251 74.2047 125.984 74.1406C127.291 74.0262 128.326 74.289 129.088 74.929C129.851 75.5689 130.273 76.3512 130.354 77.2756C130.449 78.3595 130.108 79.4172 129.33 80.4489C128.585 81.4777 127.473 82.346 125.993 83.0537C124.513 83.7614 122.801 84.2003 120.856 84.3704ZM144.779 82.3738C142.486 82.6065 140.388 82.3082 138.485 81.479C136.613 80.6469 135.092 79.4148 133.921 77.7826C132.78 76.1158 132.083 74.2172 131.833 72.087C131.614 69.9539 131.941 67.998 132.813 66.2192C133.685 64.4404 134.987 62.9774 136.717 61.8302C138.48 60.6802 140.509 60.0048 142.804 59.804C145.036 59.6088 147.086 59.9113 148.955 60.7114C150.855 61.5088 152.407 62.7222 153.61 64.3516C154.812 65.981 155.539 67.8608 155.789 69.9911C156.002 72.0603 155.674 74.0003 154.805 75.811C153.933 77.5898 152.617 79.0701 150.857 80.252C149.129 81.4311 147.103 82.1383 144.779 82.3738ZM144.311 75.3799C145.172 75.3046 145.892 74.9044 146.471 74.1791C147.05 73.4539 147.3 72.645 147.222 71.7524C147.144 70.8598 146.758 70.1226 146.065 69.5409C145.369 68.9272 144.591 68.658 143.73 68.7333C142.869 68.8086 142.149 69.2089 141.57 69.9341C140.988 70.6275 140.737 71.4204 140.815 72.313C140.893 73.2056 141.28 73.9587 141.976 74.5724C142.672 75.1861 143.451 75.4552 144.311 75.3799ZM179.233 58.4479C179.378 60.1056 178.696 61.3056 177.187 62.0479C175.675 62.7584 173.566 63.2481 170.859 63.517C170.897 64.3168 170.994 65.6092 171.15 67.3944C171.309 69.2115 171.549 70.4914 171.871 71.2342C172.078 71.7621 172.348 72.0919 172.681 72.2234C173.045 72.3521 173.565 72.419 174.24 72.4242C174.466 72.4366 174.709 72.4635 174.97 72.5049C175.259 72.5117 175.582 72.5316 175.939 72.5647C176.686 72.66 177.295 73.0082 177.765 73.6095C178.232 74.179 178.508 74.9419 178.591 75.8982C178.686 76.9821 178.202 77.8756 177.139 78.5789C176.077 79.2822 174.573 79.719 172.628 79.8891C170.843 80.0453 169.093 79.6844 167.378 78.8066C165.66 77.8968 164.422 76.5918 163.663 74.8915C162.861 73.0664 162.231 69.5399 161.774 64.3119C159.536 64.4434 157.71 64.314 156.295 63.9239C154.909 63.4991 154.155 62.6013 154.036 61.2306C153.885 59.5091 154.422 58.3058 155.647 57.6204C156.869 56.9031 158.674 56.424 161.062 56.1829C160.935 53.6243 161.148 51.4695 161.701 49.7186C162.252 47.9359 163.436 46.965 165.253 46.806C167.102 46.6442 168.367 47.3366 169.048 48.8831C169.762 50.4268 170.208 52.5882 170.387 55.3672C173.285 55.0815 175.44 55.1178 176.853 55.476C178.297 55.8315 179.091 56.8221 179.233 58.4479ZM190.132 78.3577C187.645 78.5753 185.556 78.1959 183.865 77.2196C182.17 76.2115 181.23 74.6394 181.043 72.5036C180.881 70.6547 181.566 69.1172 183.097 67.8911C184.628 66.665 186.605 65.9459 189.027 65.734C189.92 65.6559 190.756 65.6631 191.535 65.7555C192.343 65.8133 192.899 65.9253 193.202 66.0914C193.133 65.2945 192.741 64.6703 192.027 64.2188C191.31 63.7354 190.266 63.5537 188.895 63.6736C188.29 63.7266 187.8 63.8177 187.426 63.9468C187.051 64.0759 186.65 64.2556 186.22 64.4859C185.79 64.7162 185.389 64.8959 185.014 65.025C184.672 65.1513 184.198 65.241 183.592 65.294C182.572 65.3832 181.753 65.1979 181.135 64.7381C180.513 64.2464 180.155 63.4586 180.061 62.3747C179.952 61.1314 180.306 60.0404 181.123 59.1016C181.972 58.16 183.064 57.4221 184.399 56.8877C185.731 56.3215 187.082 55.9784 188.453 55.8585C191.162 55.6214 193.47 55.9335 195.376 56.7946C197.312 57.6211 198.782 58.8255 199.788 60.4078C200.826 61.9874 201.432 63.7814 201.608 65.7897C201.703 66.8736 201.695 67.8861 201.585 68.8273C201.506 69.7657 201.346 70.5025 201.104 71.0376C201.583 71.3811 201.957 71.7981 202.225 72.2887C202.525 72.7764 202.698 73.2912 202.745 73.8332C202.826 74.7576 202.577 75.5825 201.998 76.3077C201.451 77.0301 200.668 77.436 199.647 77.5252C198.882 77.5922 198.251 77.535 197.753 77.3537C197.256 77.1724 196.715 76.8663 196.131 76.4356C195.376 76.9835 194.53 77.4108 193.593 77.7176C192.688 78.0217 191.534 78.235 190.132 78.3577ZM190.666 73.4445C191.335 73.386 191.849 73.1965 192.206 72.8761C192.595 72.5529 192.772 72.1842 192.736 71.7697C192.699 71.3553 192.461 71.0228 192.022 70.7721C191.614 70.5187 191.076 70.4213 190.406 70.4798C189.737 70.5384 189.207 70.7293 188.818 71.0524C188.461 71.3728 188.3 71.7402 188.336 72.1546C188.373 72.569 188.595 72.903 189.002 73.1564C189.442 73.407 189.996 73.5031 190.666 73.4445ZM231.771 74.7148C229.412 74.9211 227.284 74.6416 225.386 73.8761C223.488 73.1106 221.957 71.9436 220.791 70.3752C219.655 68.7721 218.995 66.9186 218.811 64.8146C218.63 62.7425 218.957 60.7866 219.792 58.9469C220.658 57.1043 221.938 55.579 223.631 54.3708C225.324 53.1626 227.303 52.4595 229.566 52.2615C231.606 52.083 233.444 52.3399 235.078 53.032C236.713 53.7242 238.004 54.7194 238.953 56.0177C239.899 57.284 240.436 58.6504 240.565 60.1168C240.774 62.5077 240.019 64.3405 238.299 65.6152C236.609 66.8552 234.52 67.584 232.034 67.8016C230.376 67.9466 228.955 67.8621 227.772 67.5481C228.865 69.0265 230.511 69.6694 232.71 69.477C233.603 69.3989 234.55 69.2036 235.55 68.8912C235.924 68.7621 236.287 68.6823 236.637 68.6516C237.339 68.5902 237.912 68.7167 238.357 69.0311C238.834 69.3428 239.099 69.8014 239.152 70.4071C239.239 71.3953 238.708 72.309 237.561 73.1482C236.411 73.9555 234.481 74.4777 231.771 74.7148ZM227.405 61.7018C227.731 62.123 228.142 62.4243 228.64 62.6056C229.167 62.7522 229.733 62.7991 230.339 62.7461C231.04 62.6847 231.632 62.4723 232.114 62.1089C232.628 61.7427 232.863 61.3046 232.818 60.7946C232.768 60.2207 232.486 59.7475 231.971 59.375C231.489 58.9996 230.817 58.8496 229.956 58.9249C229.096 59.0002 228.434 59.3311 227.971 59.9176C227.538 60.4695 227.349 61.0643 227.405 61.7018ZM262.099 72.0614C260.951 72.1619 260.063 71.9184 259.433 71.331C258.835 70.7409 258.432 69.9891 258.224 69.0758C258.015 68.1625 257.847 66.9726 257.719 65.5062C257.554 63.6254 257.172 62.1973 256.573 61.2218C255.974 60.2463 255.1 59.8088 253.953 59.9092C252.901 60.0012 252.148 60.581 251.696 61.6485C251.272 62.6814 251.137 64.0744 251.29 65.8277C251.438 67.5173 251.502 68.7966 251.482 69.6657C251.461 70.5348 251.209 71.3277 250.726 72.0446C250.24 72.7296 249.375 73.1264 248.132 73.2352C246.315 73.3942 244.938 72.3422 244.001 70.0792C243.062 67.7844 242.454 65.059 242.178 61.903C241.508 54.2523 242.783 50.286 246.003 50.0043C246.896 49.9263 247.648 50.0853 248.261 50.4813C248.871 50.8456 249.323 51.4164 249.616 52.1938C249.991 51.7113 250.594 51.257 251.424 50.831C252.286 50.4023 253.211 50.1447 254.199 50.0582C257.706 49.7514 260.431 50.7979 262.376 53.1975C264.352 55.5944 265.531 58.9765 265.914 63.3438C266.139 65.9259 265.983 67.9954 265.445 69.5523C264.904 71.0772 263.788 71.9136 262.099 72.0614ZM291.977 69.4474C289.491 69.665 287.402 69.2856 285.71 68.3093C284.016 67.3011 283.075 65.7291 282.888 63.5933C282.727 61.7444 283.411 60.2068 284.942 58.9807C286.473 57.7546 288.45 57.0356 290.873 56.8237C291.765 56.7456 292.601 56.7527 293.38 56.8452C294.188 56.903 294.744 57.015 295.048 57.1811C294.978 56.3842 294.586 55.76 293.872 55.3085C293.155 54.8251 292.111 54.6434 290.741 54.7633C290.135 54.8163 289.645 54.9074 289.271 55.0365C288.897 55.1656 288.495 55.3453 288.065 55.5756C287.636 55.8059 287.234 55.9856 286.86 56.1147C286.517 56.241 286.043 56.3307 285.438 56.3837C284.418 56.4729 283.598 56.2876 282.98 55.8278C282.359 55.336 282.001 54.5482 281.906 53.4644C281.797 52.2211 282.151 51.1301 282.969 50.1913C283.818 49.2497 284.91 48.5117 286.244 47.9774C287.576 47.4112 288.927 47.0681 290.298 46.9482C293.007 46.7111 295.315 47.0231 297.222 47.8843C299.157 48.7107 300.628 49.9152 301.633 51.4975C302.671 53.0771 303.278 54.8711 303.453 56.8794C303.548 57.9632 303.541 58.9758 303.43 59.917C303.352 60.8554 303.191 61.5922 302.949 62.1273C303.429 62.4708 303.802 62.8878 304.07 63.3784C304.37 63.8661 304.543 64.3809 304.591 64.9229C304.672 65.8473 304.423 66.6722 303.844 67.3974C303.297 68.1198 302.513 68.5257 301.493 68.6149C300.728 68.6819 300.096 68.6247 299.599 68.4434C299.101 68.262 298.56 67.956 297.976 67.5252C297.221 68.0731 296.375 68.5005 295.439 68.8073C294.534 69.1113 293.38 69.3247 291.977 69.4474ZM292.511 64.5342C293.18 64.4756 293.694 64.2862 294.051 63.9658C294.441 63.6426 294.617 63.2738 294.581 62.8594C294.545 62.445 294.307 62.1125 293.867 61.8618C293.46 61.6084 292.921 61.511 292.252 61.5695C291.582 61.6281 291.053 61.819 290.663 62.1421C290.306 62.4625 290.145 62.8299 290.182 63.2443C290.218 63.6587 290.44 63.9927 290.848 64.2461C291.287 64.4967 291.842 64.5928 292.511 64.5342ZM317.725 67.1948C315.462 67.3928 313.406 67.0266 311.558 66.0961C309.739 65.131 308.291 63.8122 307.213 62.1398C306.132 60.4355 305.504 58.5791 305.328 56.5708C305.122 54.2118 305.426 52.1776 306.24 50.4681C307.083 48.724 308.235 47.3865 309.695 46.4557C311.188 45.5221 312.826 44.9772 314.611 44.821C316.397 44.6648 318.024 44.9079 319.494 45.5503C319.371 44.8864 319.181 44.1803 318.923 43.432C318.696 42.6808 318.543 42.2124 318.463 42.0267C318.121 41.0608 317.857 40.2487 317.671 39.5904C317.485 38.9321 317.363 38.2683 317.304 37.5988C317.187 36.2599 317.496 35.205 318.232 34.4339C318.968 33.6629 319.893 33.2286 321.009 33.1309C322.794 32.9748 324.323 33.7405 325.595 35.428C326.867 37.1156 327.857 39.2614 328.567 41.8655C329.309 44.4667 329.798 47.1222 330.035 49.8318C330.356 53.4978 329.827 57.1899 328.45 60.9081C327.102 64.5916 323.527 66.6872 317.725 67.1948ZM317.351 59.6145C318.212 59.5392 318.933 59.1549 319.515 58.4615C320.094 57.7363 320.344 56.9274 320.266 56.0348C320.188 55.1422 319.801 54.3891 319.105 53.7754C318.409 53.1618 317.63 52.8926 316.77 52.9679C315.909 53.0432 315.173 53.4449 314.562 54.1729C313.983 54.8981 313.733 55.707 313.811 56.5996C313.889 57.4922 314.276 58.2453 314.972 58.859C315.698 59.438 316.491 59.6898 317.351 59.6145ZM344.874 64.8678C342.581 65.1005 340.483 64.8022 338.58 63.9729C336.708 63.1409 335.187 61.9088 334.016 60.2766C332.875 58.6097 332.178 56.7112 331.928 54.5809C331.709 52.4479 332.036 50.4919 332.908 48.7132C333.78 46.9344 335.082 45.4714 336.813 44.3242C338.575 43.1742 340.604 42.4988 342.899 42.298C345.131 42.1028 347.181 42.4052 349.05 43.2054C350.95 44.0028 352.502 45.2161 353.705 46.8455C354.907 48.4749 355.634 50.3547 355.884 52.485C356.098 54.5543 355.769 56.4943 354.9 58.305C354.028 60.0837 352.712 61.5641 350.952 62.7459C349.224 63.925 347.198 64.6323 344.874 64.8678ZM344.406 57.8739C345.267 57.7986 345.987 57.3983 346.566 56.6731C347.145 55.9479 347.395 55.139 347.317 54.2464C347.239 53.3538 346.853 52.6166 346.16 52.0348C345.464 51.4212 344.686 51.152 343.825 51.2273C342.964 51.3026 342.244 51.7028 341.665 52.4281C341.084 53.1214 340.832 53.9144 340.91 54.807C340.988 55.6996 341.375 56.4527 342.071 57.0663C342.767 57.68 343.546 57.9492 344.406 57.8739ZM363.794 70.0545C362.232 70.1912 361.03 69.4932 360.19 67.9607C359.352 66.46 358.765 64.7125 358.43 62.7181C358.127 60.7209 357.831 58.0806 357.544 54.7971C357.324 52.2788 357.226 50.0549 357.25 48.1254C357.305 46.1932 357.654 44.4923 358.297 43.0227C358.939 41.5532 360.041 40.75 361.603 40.6134C363.229 40.4711 364.465 41.0055 365.309 42.2165C365.995 41.6104 366.866 41.1006 367.922 40.687C369.007 40.2387 370.155 39.9616 371.367 39.8556C373.407 39.6771 375.332 40.0226 377.143 40.8921C378.954 41.7616 380.444 43.0124 381.615 44.6446C382.786 46.2768 383.46 48.113 383.639 50.1532C383.817 52.1934 383.473 54.1348 382.606 55.9773C381.737 57.788 380.486 59.2787 378.854 60.4494C377.222 61.6201 375.386 62.2947 373.345 62.4732C372.102 62.582 370.925 62.5244 369.813 62.3004C368.698 62.0446 367.733 61.6632 366.918 61.1563C367.097 63.1966 367.171 64.7801 367.141 65.907C367.111 67.0339 366.84 67.9731 366.327 68.7246C365.85 69.5052 365.005 69.9485 363.794 70.0545ZM372.412 54.5564C373.241 54.4839 373.931 54.1183 374.484 53.4596C375.066 52.7663 375.321 52.0052 375.248 51.1764C375.175 50.3475 374.794 49.6582 374.103 49.1083C373.442 48.5237 372.697 48.2677 371.868 48.3402C371.039 48.4127 370.334 48.7956 369.752 49.489C369.199 50.1476 368.959 50.8914 369.032 51.7202C369.104 52.5491 369.471 53.2558 370.133 53.8403C370.823 54.3902 371.583 54.6289 372.412 54.5564ZM397.767 60.1438C395.727 60.3223 393.755 59.997 391.851 59.1677C389.977 58.3038 388.423 57.0585 387.188 55.4319C385.954 53.8053 385.243 51.9241 385.056 49.7883C384.861 47.5568 385.217 45.5662 386.124 43.8165C387.06 42.0321 388.365 40.6169 390.041 39.571C391.748 38.5222 393.621 37.9085 395.661 37.73C397.606 37.5599 399.393 37.7891 401.022 38.4175C402.651 39.0459 403.95 39.9441 404.919 41.112C405.886 42.2481 406.428 43.4856 406.545 44.8245C406.643 45.9402 406.367 46.8316 405.719 47.4986C405.103 48.1629 404.125 48.5536 402.786 48.6707C402.085 48.7321 401.532 48.652 401.127 48.4304C400.722 48.2089 400.29 47.8612 399.831 47.3874C399.407 46.9427 399.009 46.6241 398.639 46.4316C398.298 46.2045 397.825 46.1174 397.219 46.1704C396.358 46.2457 395.652 46.6127 395.099 47.2714C394.543 47.8982 394.306 48.6738 394.387 49.5983C394.471 50.5546 394.825 51.2946 395.449 51.8182C396.104 52.339 396.879 52.5604 397.771 52.4823C398.345 52.4321 398.784 52.3134 399.089 52.1261C399.394 51.9388 399.722 51.6531 400.074 51.269C400.487 50.8474 400.878 50.5402 401.246 50.3473C401.612 50.1226 402.162 49.9781 402.895 49.914C404.202 49.7996 405.237 50.0624 405.999 50.7024C406.762 51.3424 407.184 52.1246 407.265 53.049C407.36 54.1329 407.019 55.1907 406.241 56.2223C405.496 57.2512 404.384 58.1194 402.904 58.8271C401.424 59.5348 399.712 59.9737 397.767 60.1438ZM412.316 35.5502C410.754 35.6869 409.382 35.2447 408.201 34.2238C407.017 33.171 406.353 31.8317 406.211 30.206C406.072 28.612 406.495 27.2098 407.481 25.9992C408.465 24.7568 409.738 24.0673 411.3 23.9306C412.83 23.7967 414.187 24.2562 415.371 25.309C416.585 26.3271 417.261 27.6331 417.4 29.227C417.543 30.8528 417.106 32.2883 416.091 33.5336C415.104 34.7441 413.846 35.4163 412.316 35.5502ZM414.345 58.7416C413.038 58.856 412.034 58.5744 411.332 57.897C410.659 57.1849 410.146 56.0895 409.792 54.6108C409.467 53.0973 409.181 50.938 408.936 48.1327C408.73 45.7737 408.678 43.8991 408.781 42.5088C408.916 41.1157 409.273 40.0566 409.852 39.3313C410.431 38.6061 411.326 38.1905 412.538 38.0845C413.845 37.9702 414.835 38.269 415.507 38.9811C416.209 39.6586 416.722 40.754 417.048 42.2674C417.402 43.7461 417.702 45.8882 417.947 48.6935C418.153 51.0524 418.189 52.9285 418.054 54.3216C417.951 55.7118 417.61 56.7696 417.031 57.4948C416.452 58.22 415.556 58.6356 414.345 58.7416ZM434.298 57.0442C432.005 57.2769 429.907 56.9786 428.004 56.1493C426.132 55.3173 424.611 54.0852 423.44 52.453C422.299 50.7862 421.603 48.8876 421.352 46.7573C421.133 44.6243 421.46 42.6684 422.332 40.8896C423.205 39.1108 424.506 37.6478 426.237 36.5006C427.999 35.3506 430.028 34.6752 432.323 34.4744C434.555 34.2792 436.605 34.5816 438.474 35.3818C440.374 36.1792 441.926 37.3925 443.129 39.0219C444.331 40.6513 445.058 42.5311 445.308 44.6614C445.522 46.7307 445.193 48.6707 444.324 50.4814C443.452 52.2602 442.136 53.7405 440.376 54.9224C438.648 56.1014 436.622 56.8087 434.298 57.0442ZM433.83 50.0503C434.691 49.975 435.411 49.5747 435.99 48.8495C436.569 48.1243 436.819 47.3154 436.741 46.4228C436.663 45.5302 436.278 44.793 435.584 44.2112C434.888 43.5976 434.11 43.3284 433.249 43.4037C432.388 43.479 431.668 43.8792 431.089 44.6045C430.508 45.2978 430.256 46.0908 430.334 46.9834C430.412 47.876 430.799 48.6291 431.495 49.2428C432.191 49.8564 432.97 50.1256 433.83 50.0503ZM430.329 33.1552C429.659 33.2138 429.082 33.0394 428.596 32.6322C428.108 32.1931 427.839 31.6866 427.789 31.1128C427.739 30.539 427.993 29.7779 428.553 28.8295C429.141 27.8465 429.837 26.9826 430.639 26.2378C431.47 25.4584 432.189 25.0422 432.794 24.9892C433.719 24.9084 434.48 25.163 435.078 25.7531C435.672 26.3114 435.985 26.9426 436.014 27.6467C436.064 28.2205 435.742 28.9394 435.046 29.8033C434.348 30.6353 433.532 31.3974 432.596 32.0895C431.69 32.747 430.934 33.1022 430.329 33.1552ZM467.564 54.0856C466.416 54.186 465.528 53.9425 464.898 53.3551C464.3 52.765 463.897 52.0133 463.689 51.0999C463.481 50.1866 463.312 48.9968 463.184 47.5304C463.019 45.6496 462.637 44.2214 462.038 43.2459C461.439 42.2704 460.565 41.8329 459.418 41.9333C458.366 42.0254 457.614 42.6051 457.161 43.6726C456.737 44.7055 456.602 46.0986 456.756 47.8519C456.903 49.5414 456.967 50.8207 456.947 51.6898C456.926 52.5589 456.675 53.3519 456.191 54.0687C455.705 54.7537 454.84 55.1506 453.597 55.2593C451.78 55.4183 450.403 54.3663 449.466 52.1033C448.527 49.8085 447.919 47.0831 447.643 43.9272C446.973 36.2764 448.249 32.3102 451.468 32.0285C452.361 31.9504 453.114 32.1094 453.726 32.5055C454.337 32.8697 454.788 33.4405 455.081 34.2179C455.456 33.7354 456.059 33.2811 456.889 32.8552C457.751 32.4264 458.676 32.1688 459.664 32.0824C463.171 31.7756 465.896 32.822 467.841 35.2217C469.817 37.6185 470.997 41.0006 471.379 45.3679C471.605 47.9501 471.448 50.0196 470.91 51.5764C470.369 53.1014 469.254 53.9378 467.564 54.0856Z" fill="#212121"/>
</svg>
