<svg width="207" height="86" viewBox="0 0 207 86" fill="none" xmlns="http://www.w3.org/2000/svg">
<rect y="17.5183" width="201" height="68" rx="12" transform="rotate(-5 0 17.5183)" fill="#B784F0"/>
<path d="M33.1193 66.9158C30.9834 67.1026 29.1714 66.2172 27.6831 64.2595C26.2239 62.2671 25.2265 59.4954 24.691 55.9446C24.6145 55.4373 24.533 54.6896 24.4465 53.7014C24.1091 49.8441 24.4482 46.3774 25.464 43.3011C26.4769 40.193 28.0759 37.7243 30.2607 35.8949C32.4747 34.0308 35.1437 32.9621 38.2678 32.6888C41.3918 32.4155 44.1899 33.0059 46.6621 34.4599C49.1633 35.8794 51.1652 38.017 52.6679 40.8729C54.2024 43.726 55.1397 47.0972 55.48 50.9863C55.5665 51.9745 55.6161 52.7251 55.6288 53.2379C55.7236 56.8915 55.2227 59.7942 54.1261 61.946C53.0294 64.0978 51.3972 65.2685 49.2295 65.4581C47.4762 65.6115 46.2071 65.2407 45.4221 64.3457C44.669 63.448 44.2324 62.3137 44.1125 60.9429C44.0567 60.3054 44.0558 59.7433 44.1096 59.2568C42.4575 59.4656 40.9939 59.6257 39.7187 59.7373C38.9218 59.807 38.0423 59.8518 37.0804 59.8717C37.2179 60.3415 37.3145 60.8952 37.3703 61.5328C37.493 62.9354 37.2455 64.1456 36.6279 65.1633C36.0421 66.1782 34.8726 66.7624 33.1193 66.9158ZM36.001 51.3895C37.7169 51.1752 38.9733 51.0331 39.7702 50.9634C40.6309 50.8881 41.8929 50.8098 43.5562 50.7285C43.5892 50.3723 43.5751 49.8435 43.5137 49.1422C43.3827 47.6439 42.9579 46.4605 42.2395 45.5918C41.5182 44.6912 40.4882 44.2995 39.1493 44.4166C37.8423 44.531 36.9104 45.0783 36.3537 46.0585C35.7971 47.0388 35.5829 48.2621 35.7111 49.7285C35.7586 50.2704 35.8552 50.8241 36.001 51.3895ZM70.4667 63.5519C68.2033 63.75 66.1476 63.3837 64.2995 62.4533C62.4804 61.4881 61.032 60.1694 59.9541 58.4969C58.8735 56.7926 58.2453 54.9363 58.0696 52.928C57.8632 50.569 58.1671 48.5348 58.9812 46.8253C59.8244 45.0812 60.9762 43.7437 62.4366 42.8129C63.9289 41.8793 65.5677 41.3344 67.3528 41.1782C69.138 41.022 70.7654 41.2651 72.235 41.9075C72.1127 41.2436 71.9224 40.5375 71.6642 39.7891C71.4379 39.038 71.2845 38.5696 71.204 38.3839C70.8625 37.418 70.5987 36.6059 70.4126 35.9476C70.2265 35.2893 70.1042 34.6255 70.0456 33.956C69.9285 32.6171 70.2377 31.5622 70.9733 30.7911C71.7089 30.0201 72.6346 29.5857 73.7503 29.4881C75.5355 29.3319 77.0641 30.0976 78.336 31.7852C79.6079 33.4728 80.5987 35.6186 81.3084 38.2226C82.0499 40.8239 82.5392 43.4794 82.7763 46.189C83.097 49.855 82.5688 53.5471 81.1916 57.2653C79.8435 60.9488 76.2685 63.0443 70.4667 63.5519ZM70.0926 55.9717C70.9533 55.8964 71.6746 55.5121 72.2564 54.8187C72.8354 54.0935 73.0858 53.2846 73.0077 52.392C72.9296 51.4994 72.5425 50.7463 71.8464 50.1326C71.1502 49.519 70.3718 49.2498 69.5111 49.3251C68.6504 49.4004 67.9146 49.802 67.3037 50.5301C66.7247 51.2553 66.4743 52.0642 66.5524 52.9568C66.6305 53.8494 67.0176 54.6025 67.7137 55.2162C68.4389 55.7952 69.2319 56.047 70.0926 55.9717ZM97.6151 61.2249C95.3226 61.4576 93.2246 61.1593 91.3211 60.3301C89.4495 59.4981 87.9283 58.2659 86.7576 56.6338C85.616 54.9669 84.9199 53.0684 84.6692 50.9381C84.4505 48.8051 84.7773 46.8491 85.6496 45.0703C86.5219 43.2915 87.8233 41.8285 89.5539 40.6814C91.3164 39.5314 93.3452 38.856 95.6405 38.6552C97.8719 38.4599 99.9221 38.7624 101.791 39.5626C103.692 40.3599 105.243 41.5733 106.446 43.2027C107.649 44.8321 108.375 46.7119 108.626 48.8422C108.839 50.9115 108.511 52.8515 107.641 54.6621C106.769 56.4409 105.453 57.9213 103.693 59.1031C101.965 60.2822 99.9394 60.9895 97.6151 61.2249ZM97.1477 54.2311C98.0084 54.1558 98.7283 53.7555 99.3073 53.0303C99.8863 52.3051 100.137 51.4961 100.059 50.6036C99.9806 49.711 99.5948 48.9738 98.9015 48.392C98.2054 47.7783 97.4269 47.5092 96.5662 47.5845C95.7055 47.6598 94.9857 48.06 94.4067 48.7852C93.8249 49.4786 93.573 50.2716 93.6511 51.1641C93.7292 52.0567 94.1163 52.8099 94.8125 53.4235C95.5086 54.0372 96.287 54.3064 97.1477 54.2311ZM116.535 66.4117C114.973 66.5484 113.772 65.8504 112.931 64.3179C112.093 62.8172 111.506 61.0696 111.171 59.0753C110.868 57.0781 110.573 54.4378 110.286 51.1543C110.065 48.6359 109.967 46.412 109.991 44.4826C110.047 42.5504 110.396 40.8495 111.038 39.3799C111.681 37.9103 112.783 37.1072 114.345 36.9706C115.971 36.8283 117.206 37.3627 118.051 38.5737C118.736 37.9676 119.607 37.4578 120.663 37.0441C121.748 36.5959 122.897 36.3187 124.108 36.2128C126.148 36.0343 128.074 36.3798 129.884 37.2493C131.695 38.1188 133.186 39.3696 134.356 41.0018C135.527 42.634 136.202 44.4702 136.38 46.5104C136.559 48.5506 136.215 50.4919 135.348 52.3345C134.478 54.1452 133.227 55.6359 131.595 56.8066C129.963 57.9773 128.127 58.6519 126.087 58.8304C124.843 58.9391 123.666 58.8815 122.554 58.6576C121.44 58.4018 120.475 58.0204 119.659 57.5135C119.838 59.5537 119.912 61.1373 119.882 62.2642C119.852 63.3911 119.581 64.3303 119.069 65.0818C118.591 65.8624 117.746 66.3057 116.535 66.4117ZM125.153 50.9136C125.982 50.8411 126.673 50.4755 127.225 49.8168C127.807 49.1235 128.062 48.3624 127.989 47.5336C127.917 46.7047 127.535 46.0153 126.845 45.4654C126.183 44.8809 125.438 44.6248 124.609 44.6974C123.78 44.7699 123.075 45.1528 122.493 45.8461C121.941 46.5048 121.701 47.2486 121.773 48.0774C121.846 48.9062 122.213 49.6129 122.874 50.1975C123.565 50.7474 124.324 50.9861 125.153 50.9136ZM158.873 34.954C159.018 36.6117 158.336 37.8117 156.827 38.554C155.315 39.2645 153.206 39.7542 150.499 40.0231C150.537 40.8229 150.634 42.1153 150.79 43.9005C150.949 45.7176 151.19 46.9975 151.512 47.7402C151.718 48.2682 151.988 48.598 152.321 48.7295C152.685 48.8582 153.205 48.9251 153.88 48.9303C154.106 48.9427 154.349 48.9696 154.61 49.011C154.9 49.0178 155.223 49.0377 155.579 49.0708C156.326 49.1661 156.935 49.5143 157.405 50.1156C157.872 50.6851 158.148 51.448 158.232 52.4043C158.326 53.4882 157.842 54.3817 156.78 55.085C155.717 55.7883 154.213 56.2251 152.269 56.3952C150.484 56.5514 148.733 56.1905 147.018 55.3127C145.301 54.4029 144.062 53.0979 143.303 51.3976C142.501 49.5725 141.871 46.046 141.414 40.818C139.177 40.9495 137.35 40.8201 135.935 40.43C134.549 40.0052 133.796 39.1074 133.676 37.7367C133.525 36.0152 134.062 34.8118 135.287 34.1265C136.509 33.4092 138.315 32.9301 140.703 32.689C140.575 30.1304 140.788 27.9756 141.342 26.2247C141.892 24.442 143.076 23.4711 144.893 23.3121C146.742 23.1503 148.007 23.8427 148.689 25.3892C149.402 26.9329 149.848 29.0943 150.027 31.8733C152.925 31.5876 155.08 31.6239 156.493 31.9821C157.938 32.3376 158.731 33.3282 158.873 34.954ZM169.772 54.8638C167.286 55.0814 165.197 54.702 163.505 53.7257C161.811 52.7176 160.87 51.1455 160.683 49.0097C160.522 47.1608 161.206 45.6233 162.737 44.3972C164.268 43.1711 166.245 42.452 168.668 42.2401C169.56 42.162 170.396 42.1692 171.175 42.2616C171.983 42.3194 172.539 42.4314 172.843 42.5975C172.773 41.8006 172.381 41.1764 171.667 40.7249C170.95 40.2415 169.906 40.0598 168.536 40.1797C167.93 40.2327 167.44 40.3238 167.066 40.4529C166.692 40.582 166.29 40.7617 165.86 40.992C165.431 41.2223 165.029 41.402 164.655 41.5311C164.312 41.6574 163.838 41.7471 163.233 41.8001C162.213 41.8893 161.393 41.704 160.775 41.2442C160.154 40.7524 159.796 39.9647 159.701 38.8808C159.592 37.6375 159.946 36.5465 160.764 35.6077C161.613 34.6661 162.705 33.9282 164.039 33.3938C165.371 32.8276 166.722 32.4845 168.093 32.3646C170.802 32.1275 173.11 32.4396 175.017 33.3007C176.952 34.1272 178.423 35.3316 179.428 36.9139C180.466 38.4935 181.073 40.2875 181.248 42.2958C181.343 43.3797 181.335 44.3922 181.225 45.3334C181.147 46.2718 180.986 47.0086 180.744 47.5437C181.224 47.8872 181.597 48.3042 181.865 48.7948C182.165 49.2825 182.338 49.7973 182.386 50.3393C182.467 51.2637 182.218 52.0886 181.639 52.8138C181.091 53.5362 180.308 53.9421 179.288 54.0313C178.523 54.0983 177.891 54.0411 177.394 53.8598C176.896 53.6785 176.355 53.3724 175.771 52.9417C175.016 53.4896 174.17 53.9169 173.233 54.2237C172.329 54.5278 171.175 54.7411 169.772 54.8638ZM170.306 49.9506C170.975 49.8921 171.489 49.7026 171.846 49.3822C172.236 49.059 172.412 48.6903 172.376 48.2758C172.34 47.8614 172.102 47.5289 171.662 47.2782C171.255 47.0248 170.716 46.9274 170.047 46.9859C169.377 47.0445 168.848 47.2354 168.458 47.5585C168.101 47.8789 167.94 48.2463 167.977 48.6607C168.013 49.0751 168.235 49.4091 168.642 49.6625C169.082 49.9131 169.636 50.0092 170.306 49.9506Z" fill="#FAFAFA"/>
</svg>
