<svg width="765" height="237" viewBox="0 0 765 237" fill="none" xmlns="http://www.w3.org/2000/svg">
<g clip-path="url(#clip0_59_982)">
<path d="M233.93 120.51C233.93 151.217 221.732 180.668 200.018 202.381C178.304 224.095 148.854 236.293 118.147 236.293C95.6353 236.376 73.6026 229.799 54.8199 217.39C38.6718 206.917 25.4085 192.561 16.2442 175.635C7.07977 158.71 2.30703 139.757 2.36279 120.51C2.34526 111.689 3.29613 102.894 5.19831 94.2811C11.4767 66.4229 27.8288 41.8676 51.1124 25.3336C74.396 8.79969 102.969 1.45355 131.34 4.70684C159.711 7.96013 185.879 21.5833 204.815 42.9586C223.752 64.334 234.121 91.9534 233.93 120.51V120.51Z" fill="#FAFAFA"/>
<path d="M203.448 120.982C202.719 118.053 201.522 115.26 199.904 112.712C198.174 110.162 196.107 107.857 193.76 105.859C189.061 101.794 183.479 98.8812 177.456 97.3528L174.857 96.8802C176.532 90.465 175.925 83.6671 173.141 77.6499C170.356 71.6327 165.567 66.7703 159.593 63.8949C153.618 61.0194 146.83 60.3097 140.391 61.8871C133.951 63.4645 128.259 67.231 124.29 72.542C121.763 66.4658 117.099 61.5249 111.179 58.6517C105.258 55.7786 98.4912 55.1721 92.1542 56.9466H91.2091C88.9155 57.5798 86.7545 58.6203 84.8291 60.0184C80.0526 63.2198 76.3931 67.8308 74.3601 73.2096C72.3272 78.5884 72.022 84.4673 73.4871 90.0277L69.7064 89.7914H66.162C56.5958 90.458 47.6794 94.8738 41.3512 102.079C41.0968 102.717 40.6914 103.285 40.1697 103.733C40.1697 103.795 40.1448 103.855 40.1005 103.9C40.0562 103.944 39.9961 103.969 39.9334 103.969C36.5814 108.174 34.5284 113.265 34.0261 118.619C32.1357 132.797 41.1149 147.683 56.0013 153.827C55.5288 174.148 55.0562 194.469 54.8199 214.791C73.5762 227.283 95.6109 233.942 118.147 233.93C138.017 233.937 157.552 228.809 174.857 219.044L172.73 164.933C195.414 159.498 207.938 137.995 203.448 120.982ZM139.886 87.4284C141.303 82.9389 145.32 80.1033 148.865 81.0485C152.409 81.9937 153.827 86.7196 152.409 91.4454C150.991 96.1713 146.974 99.0068 143.43 97.8254C139.886 96.6439 138.468 92.1543 139.886 87.4284ZM94.7535 73.0145C98.0616 71.8331 102.315 74.4323 103.969 79.1582C105.623 83.884 104.205 88.3736 100.897 89.5551C97.589 90.7366 93.3357 88.1373 91.6816 83.6478C90.0276 79.1582 91.2091 74.4323 94.7535 73.0145ZM75.3774 123.818C72.7782 126.417 67.816 125.472 64.5079 121.927C61.1998 118.383 60.7272 113.421 63.5627 110.821C64.5941 109.881 65.9479 109.373 67.3434 109.404H68.9975C71.1102 109.911 73.0108 111.068 74.4322 112.712C75.679 113.902 76.546 115.435 76.9244 117.116C77.3028 118.798 77.1756 120.554 76.5589 122.164L75.3774 123.818ZM146.265 140.831C141.776 151.937 119.328 140.594 117.674 140.831C110.821 141.303 95.6986 149.574 89.0824 140.831C86.0106 136.814 88.6098 129.489 94.2809 122.872C99.9519 116.256 110.113 109.404 119.801 109.876C129.489 110.349 139.413 118.855 144.139 127.362C148.865 135.869 147.683 137.286 146.265 140.831ZM172.494 129.489C170.733 130.145 168.804 130.199 167.008 129.644C165.213 129.088 163.652 127.953 162.57 126.417V125.944C162.433 125.823 162.348 125.654 162.333 125.472C161.388 121.927 164.224 117.91 168.95 116.729C169.926 116.346 170.975 116.185 172.021 116.256C173.505 116.097 175 116.426 176.279 117.194C177.559 117.961 178.553 119.125 179.11 120.51C180.292 124.054 177.22 128.071 172.494 129.489Z" fill="#FAFAFA" stroke="#212121" stroke-width="5.90734" stroke-linecap="round" stroke-linejoin="round"/>
<path d="M41.3514 102.315C41.097 102.954 40.6916 103.521 40.1699 103.969C40.1699 104.032 40.145 104.092 40.1007 104.136C40.0564 104.181 39.9963 104.205 39.9336 104.205L41.3514 102.315Z" fill="#FAFAFA" stroke="#212121" stroke-width="5.90734" stroke-linecap="round" stroke-linejoin="round"/>
<path d="M76.5589 122.4L75.3775 123.818C72.7782 126.417 67.8161 125.472 64.7443 121.927C61.6725 118.383 60.7273 113.421 63.5628 110.822C64.5942 109.881 65.948 109.373 67.3435 109.404H68.9976C71.1103 109.912 73.0109 111.068 74.4323 112.712C75.7264 113.921 76.6227 115.495 77.0024 117.225C77.3822 118.955 77.2275 120.76 76.5589 122.4V122.4Z" fill="#FAFAFA" stroke="#212121" stroke-width="5.90734" stroke-linecap="round" stroke-linejoin="round"/>
<path d="M146.265 140.831C141.776 151.937 119.328 140.594 117.674 140.831C110.821 141.303 95.6984 149.574 89.0822 140.831C86.0104 136.814 88.6096 129.489 94.2806 122.872C99.9517 116.256 110.112 109.404 119.8 109.876C129.488 110.349 139.649 118.855 144.139 127.362C148.628 135.869 147.683 137.286 146.265 140.831Z" fill="#FAFAFA" stroke="#212121" stroke-width="5.90734" stroke-linecap="round" stroke-linejoin="round"/>
<path d="M100.897 89.5554C97.589 90.9732 93.3357 88.1377 91.6816 83.6481C90.0276 79.1585 91.209 74.4327 94.7534 73.0149C98.2978 71.5971 102.315 74.4327 103.969 79.1585C105.623 83.8844 104.205 88.374 100.897 89.5554Z" fill="#FAFAFA" stroke="#212121" stroke-width="5.90734" stroke-linecap="round" stroke-linejoin="round"/>
<path d="M152.409 91.4458C150.991 96.1716 146.974 99.0072 143.43 97.8257C139.886 96.6442 138.468 92.1547 139.886 87.4288C141.303 82.7029 145.32 80.1037 148.865 81.0489C152.409 81.994 153.827 86.7199 152.409 91.4458Z" fill="#FAFAFA" stroke="#212121" stroke-width="5.90734" stroke-linecap="round" stroke-linejoin="round"/>
<path d="M172.494 129.489C168.24 130.67 164.223 129.252 162.806 126.417C162.571 125.947 162.571 125.947 162.336 125.477C161.388 121.927 164.223 117.91 168.949 116.729C169.926 116.346 170.975 116.185 172.021 116.256C173.532 116.119 175.049 116.455 176.361 117.217C177.673 117.979 178.716 119.129 179.346 120.51C180.291 124.054 177.22 128.071 172.494 129.489Z" fill="#FAFAFA" stroke="#212121" stroke-width="5.90734" stroke-linecap="round" stroke-linejoin="round"/>
<path d="M100.897 89.5554C97.589 90.9732 93.3357 88.1377 91.6816 83.6481C90.0276 79.1585 91.209 74.4327 94.7534 73.0149C98.2978 71.5971 102.315 74.4327 103.969 79.1585C105.623 83.8844 104.205 88.374 100.897 89.5554Z" fill="#212121"/>
<path d="M152.409 91.4458C150.991 96.1716 146.974 99.0072 143.43 97.8257C139.886 96.6442 138.468 92.1547 139.886 87.4288C141.303 82.7029 145.32 80.1037 148.865 81.0489C152.409 81.994 153.827 86.7199 152.409 91.4458Z" fill="#212121"/>
<path d="M172.494 129.489C168.24 130.67 164.223 129.252 162.806 126.417C162.571 125.947 162.571 125.947 162.336 125.477C161.388 121.927 164.223 117.91 168.949 116.729C169.926 116.346 170.975 116.185 172.021 116.256C173.532 116.119 175.049 116.455 176.361 117.217C177.673 117.979 178.716 119.129 179.346 120.51C180.291 124.054 177.22 128.071 172.494 129.489Z" fill="#212121"/>
<path d="M76.5589 122.4L75.3775 123.818C72.7782 126.417 67.8161 125.472 64.7443 121.927C61.6725 118.383 60.7273 113.421 63.5628 110.822C64.5942 109.881 65.948 109.373 67.3435 109.404H68.9976C71.1103 109.912 73.0109 111.068 74.4323 112.712C75.7264 113.921 76.6227 115.495 77.0024 117.225C77.3822 118.955 77.2275 120.76 76.5589 122.4V122.4Z" fill="#212121"/>
<path d="M146.265 140.831C141.776 151.937 119.328 140.594 117.674 140.831C110.821 141.303 95.6984 149.574 89.0822 140.831C86.0104 136.814 88.6096 129.489 94.2806 122.872C99.9517 116.256 110.112 109.404 119.8 109.876C129.488 110.349 139.649 118.855 144.139 127.362C148.628 135.869 147.683 137.286 146.265 140.831Z" fill="#212121"/>
<path d="M88.8467 169.895C96.8616 174.266 105.73 176.846 114.839 177.456C122.681 177.861 130.53 176.82 137.996 174.385" fill="#FAFAFA"/>
<path d="M88.8467 169.895C96.8616 174.266 105.73 176.846 114.839 177.456C122.681 177.861 130.53 176.82 137.996 174.385" stroke="#212121" stroke-width="5.90734" stroke-linecap="round" stroke-linejoin="round"/>
</g>
<path d="M300.612 105.958C294.437 105.958 288.892 104.729 283.977 102.272C279.126 99.7511 275.282 96.0334 272.446 91.1185C269.611 86.1406 268.193 80.0599 268.193 72.8766C268.193 67.0795 269.516 61.6605 272.163 56.6196C274.809 51.5787 278.464 47.546 283.127 44.5214C287.79 41.4968 293.02 39.9846 298.817 39.9846C304.299 39.9846 309.182 41.0243 313.467 43.1036C317.752 45.12 321.06 47.8925 323.391 51.4212C325.786 54.9498 326.983 58.888 326.983 63.2358C326.983 66.0083 326.164 68.4028 324.525 70.4192C322.95 72.4355 320.682 73.4437 317.72 73.4437C315.515 73.4437 313.813 73.0656 312.616 72.3095C311.419 71.5534 310.159 70.3877 308.835 68.8124C307.512 67.2371 306.221 66.0714 304.96 65.3152C303.763 64.4961 301.999 64.0865 299.667 64.0865C296.706 64.0865 294.154 65.2207 292.011 67.4891C289.932 69.6945 288.892 72.404 288.892 75.6176C288.892 79.0833 289.774 82.0133 291.539 84.4077C293.366 86.7392 295.824 87.9049 298.911 87.9049C301.306 87.9049 303.196 87.5583 304.582 86.8652C306.031 86.1721 307.544 85.1639 309.119 83.8406C310.442 82.7064 311.64 81.8558 312.711 81.2887C313.845 80.7216 315.231 80.438 316.869 80.438C319.39 80.438 321.375 81.2256 322.824 82.8009C324.273 84.3132 324.998 86.2981 324.998 88.7555C324.998 91.6541 323.927 94.4266 321.784 97.0731C319.705 99.7195 316.806 101.862 313.089 103.5C309.371 105.139 305.212 105.958 300.612 105.958ZM351.542 106.241C347.005 106.304 342.941 105.359 339.349 103.406C335.82 101.452 333.048 98.7744 331.032 95.3717C329.078 91.9061 328.039 88.0624 327.912 83.8406C327.849 79.6189 328.826 75.8382 330.843 72.4985C332.859 69.1589 335.663 66.5124 339.255 64.5591C342.909 62.6057 347.005 61.629 351.542 61.629C355.953 61.629 359.922 62.5742 363.451 64.4646C367.043 66.3549 369.878 69.0014 371.958 72.404C374.037 75.8067 375.14 79.6189 375.266 83.8406C375.329 87.9364 374.352 91.6856 372.336 95.0882C370.319 98.4278 367.484 101.106 363.829 103.122C360.237 105.139 356.142 106.178 351.542 106.241ZM351.825 92.4417C353.527 92.4417 355.007 91.7801 356.268 90.4568C357.528 89.1336 358.158 87.5898 358.158 85.8255C358.158 84.0612 357.528 82.5489 356.268 81.2887C355.007 79.9654 353.527 79.3038 351.825 79.3038C350.124 79.3038 348.643 79.9654 347.383 81.2887C346.123 82.5489 345.493 84.0612 345.493 85.8255C345.493 87.5898 346.123 89.1336 347.383 90.4568C348.643 91.7801 350.124 92.4417 351.825 92.4417ZM415.459 106.147C413.191 106.147 411.489 105.517 410.355 104.256C409.284 102.996 408.622 101.452 408.37 99.625C408.118 97.7977 407.992 95.4348 407.992 92.5362C407.992 88.8185 407.488 85.9515 406.48 83.9351C405.472 81.9188 403.834 80.9106 401.565 80.9106C399.486 80.9106 397.91 81.9188 396.839 83.9351C395.831 85.8885 395.327 88.598 395.327 92.0636C395.327 95.4033 395.232 97.9237 395.043 99.625C394.854 101.326 394.224 102.839 393.153 104.162C392.082 105.422 390.318 106.052 387.86 106.052C384.268 106.052 381.748 103.752 380.299 99.1524C378.849 94.4896 378.125 89.0391 378.125 82.8009C378.125 67.6782 381.307 60.1168 387.671 60.1168C389.435 60.1168 390.885 60.5578 392.019 61.44C393.153 62.2592 393.941 63.4564 394.382 65.0317C395.201 64.1495 396.461 63.3619 398.163 62.6687C399.927 61.9756 401.786 61.629 403.739 61.629C410.67 61.629 415.837 64.1495 419.24 69.1904C422.706 74.2314 424.438 81.0681 424.438 89.7007C424.438 94.8046 423.777 98.8374 422.453 101.799C421.13 104.697 418.799 106.147 415.459 106.147ZM451.046 106.147C446.383 106.147 442.256 105.233 438.664 103.406C435.072 101.578 432.268 99.0264 430.252 95.7498C428.299 92.4102 427.322 88.661 427.322 84.5022C427.322 80.4065 428.299 76.6258 430.252 73.1602C432.268 69.6945 435.041 66.922 438.569 64.8426C442.098 62.7633 446.099 61.7236 450.573 61.7236C454.606 61.7236 458.166 62.5427 461.254 64.181C464.341 65.8193 466.704 67.9932 468.342 70.7027C469.981 73.3492 470.8 76.1217 470.8 79.0202C470.8 83.7461 469.004 87.2117 465.412 89.4172C461.884 91.5595 457.662 92.6307 452.747 92.6307C449.47 92.6307 446.698 92.2212 444.43 91.402C446.32 94.4896 449.439 96.0334 453.787 96.0334C455.551 96.0334 457.441 95.8128 459.458 95.3717C460.214 95.1827 460.939 95.0882 461.632 95.0882C463.018 95.0882 464.121 95.4348 464.94 96.1279C465.822 96.821 466.263 97.7662 466.263 98.9634C466.263 100.917 465.066 102.618 462.671 104.067C460.277 105.454 456.402 106.147 451.046 106.147ZM444.713 79.8709C445.28 80.7531 446.036 81.4147 446.981 81.8558C447.99 82.2338 449.092 82.4229 450.29 82.4229C451.676 82.4229 452.873 82.1078 453.881 81.4777C454.952 80.8476 455.488 80.0284 455.488 79.0202C455.488 77.886 455.015 76.9094 454.07 76.0902C453.188 75.2711 451.896 74.8615 450.195 74.8615C448.494 74.8615 447.139 75.3971 446.131 76.4683C445.186 77.4765 444.713 78.6107 444.713 79.8709ZM496.814 106.052C492.782 106.052 488.969 105.076 485.378 103.122C481.849 101.106 479.014 98.3963 476.871 94.9937C474.729 91.5911 473.658 87.7789 473.658 83.5571C473.658 79.1463 474.697 75.3026 476.777 72.026C478.919 68.6863 481.723 66.1344 485.189 64.37C488.717 62.6057 492.498 61.7236 496.531 61.7236C500.374 61.7236 503.84 62.4797 506.928 63.992C510.015 65.5043 512.41 67.4891 514.111 69.9466C515.812 72.341 516.663 74.8615 516.663 77.508C516.663 79.7134 515.97 81.4147 514.584 82.6119C513.26 83.8091 511.275 84.4077 508.629 84.4077C507.243 84.4077 506.172 84.1557 505.415 83.6516C504.659 83.1475 503.872 82.3914 503.052 81.3832C502.296 80.438 501.572 79.7449 500.879 79.3038C500.248 78.7997 499.335 78.5477 498.138 78.5477C496.436 78.5477 494.987 79.1463 493.79 80.3435C492.593 81.4777 491.994 82.9585 491.994 84.7858C491.994 86.6761 492.561 88.1884 493.695 89.3226C494.892 90.4568 496.373 91.0239 498.138 91.0239C499.272 91.0239 500.154 90.8664 500.784 90.5514C501.414 90.2363 502.107 89.7322 502.863 89.0391C503.746 88.2829 504.565 87.7473 505.321 87.4323C506.077 87.0542 507.18 86.8652 508.629 86.8652C511.212 86.8652 513.197 87.5583 514.584 88.9446C515.97 90.3308 516.663 91.9376 516.663 93.765C516.663 95.9073 515.812 97.9237 514.111 99.8141C512.473 101.704 510.141 103.217 507.117 104.351C504.092 105.485 500.658 106.052 496.814 106.052ZM565.656 65.2207C565.656 68.4973 564.112 70.7342 561.025 71.9314C557.937 73.0656 553.715 73.6643 548.359 73.7273C548.296 75.3026 548.265 77.8545 548.265 81.3832C548.265 84.9748 548.517 87.5268 549.021 89.0391C549.336 90.1103 549.809 90.8034 550.439 91.1185C551.132 91.4335 552.14 91.6541 553.463 91.7801C553.905 91.8431 554.377 91.9376 554.881 92.0636C555.448 92.1267 556.078 92.2212 556.772 92.3472C558.221 92.6622 559.355 93.4499 560.174 94.7101C560.993 95.9073 561.403 97.4511 561.403 99.3415C561.403 101.484 560.3 103.154 558.095 104.351C555.889 105.548 552.865 106.147 549.021 106.147C545.492 106.147 542.121 105.139 538.908 103.122C535.694 101.043 533.489 98.2703 532.292 94.8046C531.031 91.087 530.401 84.0612 530.401 73.7273C525.99 73.6012 522.43 73.0341 519.721 72.026C517.074 70.9548 515.751 69.0644 515.751 66.3549C515.751 62.9523 517.011 60.6839 519.532 59.5497C522.052 58.3524 525.675 57.7223 530.401 57.6593C530.59 52.6184 531.378 48.4281 532.764 45.0885C534.15 41.6859 536.639 39.9846 540.231 39.9846C543.886 39.9846 546.249 41.5599 547.32 44.7104C548.454 47.861 548.958 52.1773 548.832 57.6593C554.566 57.5963 558.788 58.0374 561.497 58.9826C564.27 59.9277 565.656 62.0071 565.656 65.2207ZM583.619 106.147C578.704 106.147 574.671 105.044 571.521 102.839C568.37 100.57 566.795 97.3251 566.795 93.1033C566.795 89.4487 568.402 86.5501 571.615 84.4077C574.829 82.2653 578.83 81.1941 583.619 81.1941C585.383 81.1941 587.022 81.3517 588.534 81.6667C590.109 81.9188 591.18 82.2338 591.747 82.6119C591.747 81.0366 591.086 79.7449 589.763 78.7367C588.439 77.6655 586.423 77.1299 583.713 77.1299C582.516 77.1299 581.54 77.2244 580.783 77.4134C580.027 77.6025 579.208 77.886 578.326 78.2641C577.444 78.6422 576.625 78.9257 575.868 79.1148C575.175 79.3038 574.23 79.3983 573.033 79.3983C571.017 79.3983 569.441 78.8942 568.307 77.886C567.173 76.8148 566.606 75.208 566.606 73.0656C566.606 70.6082 567.488 68.5288 569.252 66.8275C571.08 65.1262 573.348 63.866 576.057 63.0468C578.767 62.1646 581.476 61.7236 584.186 61.7236C589.542 61.7236 594.016 62.7317 597.607 64.7481C601.262 66.7015 603.94 69.3165 605.641 72.5931C607.406 75.8697 608.288 79.4928 608.288 83.4626C608.288 85.605 608.099 87.5898 607.721 89.4172C607.406 91.2445 606.965 92.6622 606.398 93.6704C607.28 94.4266 607.941 95.3087 608.382 96.3169C608.887 97.3251 609.139 98.3648 609.139 99.436C609.139 101.263 608.508 102.839 607.248 104.162C606.051 105.485 604.444 106.147 602.428 106.147C600.916 106.147 599.687 105.926 598.742 105.485C597.796 105.044 596.788 104.351 595.717 103.406C594.142 104.351 592.409 105.044 590.519 105.485C588.691 105.926 586.391 106.147 583.619 106.147ZM585.509 96.6005C586.832 96.6005 587.872 96.3169 588.628 95.7498C589.447 95.1827 589.857 94.4896 589.857 93.6704C589.857 92.8513 589.447 92.1582 588.628 91.5911C587.872 91.0239 586.832 90.7404 585.509 90.7404C584.186 90.7404 583.115 91.0239 582.296 91.5911C581.54 92.1582 581.161 92.8513 581.161 93.6704C581.161 94.4896 581.54 95.1827 582.296 95.7498C583.115 96.3169 584.186 96.6005 585.509 96.6005ZM650.276 106.147C648.007 106.147 646.306 105.517 645.172 104.256C644.101 102.996 643.439 101.452 643.187 99.625C642.935 97.7977 642.809 95.4348 642.809 92.5362C642.809 88.8185 642.305 85.9515 641.297 83.9351C640.288 81.9188 638.65 80.9106 636.382 80.9106C634.302 80.9106 632.727 81.9188 631.656 83.9351C630.648 85.8885 630.144 88.598 630.144 92.0636C630.144 95.4033 630.049 97.9237 629.86 99.625C629.671 101.326 629.041 102.839 627.97 104.162C626.898 105.422 625.134 106.052 622.677 106.052C619.085 106.052 616.565 103.752 615.115 99.1524C613.666 94.4896 612.941 89.0391 612.941 82.8009C612.941 67.6782 616.124 60.1168 622.488 60.1168C624.252 60.1168 625.701 60.5578 626.835 61.44C627.97 62.2592 628.757 63.4564 629.198 65.0317C630.018 64.1495 631.278 63.3619 632.979 62.6687C634.743 61.9756 636.602 61.629 638.556 61.629C645.487 61.629 650.654 64.1495 654.056 69.1904C657.522 74.2314 659.255 81.0681 659.255 89.7007C659.255 94.8046 658.593 98.8374 657.27 101.799C655.947 104.697 653.615 106.147 650.276 106.147ZM684.634 106.147C680.16 106.147 676.19 105.076 672.724 102.933C669.322 100.728 666.707 97.8922 664.879 94.4266C663.052 90.8979 662.138 87.1487 662.138 83.179C662.138 78.5161 663.084 74.5779 664.974 71.3643C666.927 68.0877 669.416 65.6618 672.441 64.0865C675.528 62.5112 678.837 61.7236 682.365 61.7236C685.894 61.7236 689.044 62.4797 691.817 63.992C691.691 62.6687 691.439 61.251 691.061 59.7387C690.746 58.2264 690.525 57.2812 690.399 56.9032C689.895 54.9498 689.517 53.3115 689.265 51.9883C689.013 50.665 688.887 49.3418 688.887 48.0185C688.887 45.3721 689.675 43.3557 691.25 41.9694C692.825 40.5832 694.715 39.89 696.921 39.89C700.449 39.89 703.317 41.6544 705.522 45.183C707.727 48.7117 709.303 53.091 710.248 58.3209C711.256 63.5509 711.76 68.8439 711.76 74.1999C711.76 81.4462 710.09 88.598 706.751 95.6553C703.474 102.65 696.102 106.147 684.634 106.147ZM685.201 91.213C686.902 91.213 688.383 90.5829 689.643 89.3226C690.903 87.9994 691.533 86.4556 691.533 84.6913C691.533 82.927 690.903 81.3832 689.643 80.0599C688.383 78.7367 686.902 78.0751 685.201 78.0751C683.499 78.0751 681.987 78.7367 680.664 80.0599C679.404 81.3832 678.774 82.927 678.774 84.6913C678.774 86.4556 679.404 87.9994 680.664 89.3226C681.987 90.5829 683.499 91.213 685.201 91.213ZM738.288 106.241C733.751 106.304 729.687 105.359 726.095 103.406C722.566 101.452 719.794 98.7744 717.777 95.3717C715.824 91.9061 714.784 88.0624 714.658 83.8406C714.595 79.6189 715.572 75.8382 717.588 72.4985C719.605 69.1589 722.409 66.5124 726 64.5591C729.655 62.6057 733.751 61.629 738.288 61.629C742.699 61.629 746.668 62.5742 750.197 64.4646C753.789 66.3549 756.624 69.0014 758.703 72.404C760.783 75.8067 761.886 79.6189 762.012 83.8406C762.075 87.9364 761.098 91.6856 759.082 95.0882C757.065 98.4278 754.23 101.106 750.575 103.122C746.983 105.139 742.888 106.178 738.288 106.241ZM738.571 92.4417C740.273 92.4417 741.753 91.7801 743.014 90.4568C744.274 89.1336 744.904 87.5898 744.904 85.8255C744.904 84.0612 744.274 82.5489 743.014 81.2887C741.753 79.9654 740.273 79.3038 738.571 79.3038C736.87 79.3038 735.389 79.9654 734.129 81.2887C732.869 82.5489 732.239 84.0612 732.239 85.8255C732.239 87.5898 732.869 89.1336 734.129 90.4568C735.389 91.7801 736.87 92.4417 738.571 92.4417ZM320.272 135.174C323.801 135.174 326.51 136.402 328.401 138.86C330.354 141.317 331.677 144.909 332.37 149.635C333.063 154.298 333.41 160.504 333.41 168.255C333.41 176.005 333.063 182.212 332.37 186.875C331.677 191.474 330.385 194.972 328.495 197.366C326.605 199.76 323.864 200.958 320.272 200.958C315.987 200.958 312.963 199.13 311.198 195.476C309.434 191.821 308.394 186.15 308.079 178.463C306.126 178.526 302.912 178.557 298.439 178.557H293.524C293.146 186.244 292.074 191.916 290.31 195.57C288.546 199.225 285.521 201.052 281.236 201.052C277.645 201.052 274.904 199.855 273.013 197.461C271.123 195.066 269.831 191.569 269.138 186.969C268.508 182.306 268.193 176.068 268.193 168.255C268.193 160.441 268.508 154.203 269.138 149.54C269.831 144.877 271.123 141.349 273.013 138.954C274.904 136.497 277.645 135.268 281.236 135.268C284.324 135.268 286.75 136.245 288.514 138.198C290.279 140.089 291.507 142.861 292.2 146.516C292.957 150.107 293.429 154.77 293.618 160.504H300.329C303.795 160.504 306.347 160.536 307.985 160.599C308.174 151.903 309.119 145.507 310.82 141.412C312.585 137.253 315.735 135.174 320.272 135.174ZM361.031 201.147C356.431 201.147 352.399 200.013 348.933 197.744C345.467 195.413 342.789 192.199 340.899 188.103C339.072 183.945 338.158 179.156 338.158 173.737C338.158 168.444 339.009 164.285 340.71 161.26C342.411 158.236 344.774 156.724 347.799 156.724C353.155 156.724 355.833 159.465 355.833 164.947C355.833 166.081 355.801 167.089 355.738 167.971C355.675 168.79 355.612 169.515 355.549 170.145C355.297 172.665 355.171 174.682 355.171 176.194C355.171 178.967 355.738 181.078 356.872 182.527C358.007 183.976 359.393 184.701 361.031 184.701C362.733 184.701 364.119 184.008 365.19 182.621C366.324 181.172 366.891 179.03 366.891 176.194C366.891 174.178 366.797 172.319 366.608 170.618C366.545 170.051 366.482 169.231 366.419 168.16C366.356 167.026 366.324 165.986 366.324 165.041C366.324 159.496 369.002 156.724 374.358 156.724C377.383 156.724 379.714 158.236 381.352 161.26C383.054 164.222 383.904 168.381 383.904 173.737C383.904 182.117 381.951 188.796 378.044 193.774C374.138 198.689 368.467 201.147 361.031 201.147ZM410.802 201.147C406.139 201.147 402.012 200.233 398.42 198.406C394.829 196.578 392.025 194.026 390.008 190.75C388.055 187.41 387.078 183.661 387.078 179.502C387.078 175.406 388.055 171.626 390.008 168.16C392.025 164.695 394.797 161.922 398.326 159.843C401.854 157.763 405.856 156.724 410.329 156.724C414.362 156.724 417.922 157.543 421.01 159.181C424.097 160.819 426.46 162.993 428.099 165.703C429.737 168.349 430.556 171.122 430.556 174.02C430.556 178.746 428.76 182.212 425.169 184.417C421.64 186.56 417.418 187.631 412.503 187.631C409.227 187.631 406.454 187.221 404.186 186.402C406.076 189.49 409.195 191.033 413.543 191.033C415.307 191.033 417.198 190.813 419.214 190.372C419.97 190.183 420.695 190.088 421.388 190.088C422.774 190.088 423.877 190.435 424.696 191.128C425.578 191.821 426.019 192.766 426.019 193.963C426.019 195.917 424.822 197.618 422.428 199.067C420.033 200.454 416.158 201.147 410.802 201.147ZM404.469 174.871C405.036 175.753 405.793 176.415 406.738 176.856C407.746 177.234 408.849 177.423 410.046 177.423C411.432 177.423 412.629 177.108 413.638 176.478C414.709 175.848 415.244 175.028 415.244 174.02C415.244 172.886 414.772 171.909 413.827 171.09C412.944 170.271 411.653 169.861 409.951 169.861C408.25 169.861 406.895 170.397 405.887 171.468C404.942 172.476 404.469 173.611 404.469 174.871ZM446.318 200.958C443.168 200.958 440.805 199.792 439.23 197.461C437.654 195.129 436.583 191.695 436.016 187.158C435.512 182.558 435.26 176.163 435.26 167.971C435.26 160.095 435.449 153.951 435.827 149.54C436.268 145.129 437.276 141.601 438.852 138.954C440.49 136.308 443.01 134.985 446.413 134.985C449.816 134.985 452.304 136.308 453.88 138.954C455.518 141.601 456.526 145.129 456.904 149.54C457.345 153.951 457.566 160.095 457.566 167.971C457.566 175.722 457.219 181.991 456.526 186.78C455.896 191.506 454.762 195.066 453.124 197.461C451.485 199.792 449.217 200.958 446.318 200.958ZM473.363 200.958C470.212 200.958 467.849 199.792 466.274 197.461C464.699 195.129 463.628 191.695 463.061 187.158C462.556 182.558 462.304 176.163 462.304 167.971C462.304 160.095 462.493 153.951 462.871 149.54C463.313 145.129 464.321 141.601 465.896 138.954C467.534 136.308 470.055 134.985 473.457 134.985C476.86 134.985 479.349 136.308 480.924 138.954C482.563 141.601 483.571 145.129 483.949 149.54C484.39 153.951 484.61 160.095 484.61 167.971C484.61 175.722 484.264 181.991 483.571 186.78C482.941 191.506 481.806 195.066 480.168 197.461C478.53 199.792 476.261 200.958 473.363 200.958ZM504.516 201.147C499.601 201.147 495.568 200.044 492.418 197.839C489.267 195.57 487.692 192.325 487.692 188.103C487.692 184.449 489.299 181.55 492.512 179.408C495.726 177.265 499.727 176.194 504.516 176.194C506.28 176.194 507.919 176.352 509.431 176.667C511.006 176.919 512.077 177.234 512.644 177.612C512.644 176.037 511.983 174.745 510.66 173.737C509.336 172.665 507.32 172.13 504.611 172.13C503.413 172.13 502.437 172.224 501.68 172.413C500.924 172.602 500.105 172.886 499.223 173.264C498.341 173.642 497.522 173.926 496.766 174.115C496.072 174.304 495.127 174.398 493.93 174.398C491.914 174.398 490.338 173.894 489.204 172.886C488.07 171.815 487.503 170.208 487.503 168.066C487.503 165.608 488.385 163.529 490.149 161.828C491.977 160.126 494.245 158.866 496.955 158.047C499.664 157.165 502.374 156.724 505.083 156.724C510.439 156.724 514.913 157.732 518.505 159.748C522.159 161.701 524.837 164.316 526.539 167.593C528.303 170.87 529.185 174.493 529.185 178.463C529.185 180.605 528.996 182.59 528.618 184.417C528.303 186.244 527.862 187.662 527.295 188.67C528.177 189.427 528.838 190.309 529.28 191.317C529.784 192.325 530.036 193.365 530.036 194.436C530.036 196.263 529.406 197.839 528.145 199.162C526.948 200.485 525.341 201.147 523.325 201.147C521.813 201.147 520.584 200.926 519.639 200.485C518.694 200.044 517.685 199.351 516.614 198.406C515.039 199.351 513.306 200.044 511.416 200.485C509.588 200.926 507.288 201.147 504.516 201.147ZM506.406 191.6C507.73 191.6 508.769 191.317 509.525 190.75C510.345 190.183 510.754 189.49 510.754 188.67C510.754 187.851 510.345 187.158 509.525 186.591C508.769 186.024 507.73 185.74 506.406 185.74C505.083 185.74 504.012 186.024 503.193 186.591C502.437 187.158 502.059 187.851 502.059 188.67C502.059 189.49 502.437 190.183 503.193 190.75C504.012 191.317 505.083 191.6 506.406 191.6ZM551.063 201.147C545.518 201.147 541.107 200.233 537.83 198.406C534.554 196.578 532.915 194.215 532.915 191.317C532.915 189.427 533.546 187.977 534.806 186.969C536.129 185.898 537.799 185.362 539.815 185.362C540.949 185.362 541.863 185.52 542.556 185.835C543.249 186.15 543.943 186.591 544.636 187.158C545.14 187.599 545.549 187.914 545.864 188.103C546.242 188.292 546.684 188.387 547.188 188.387C548.511 188.387 549.172 187.914 549.172 186.969C549.172 186.087 548.826 185.425 548.133 184.984C547.44 184.48 546.242 183.882 544.541 183.188C542.966 182.558 541.926 182.117 541.422 181.865C538.524 180.479 536.381 178.841 534.995 176.95C533.609 175.06 532.915 173.044 532.915 170.901C532.915 168.507 533.766 166.238 535.467 164.096C537.232 161.891 539.689 160.126 542.84 158.803C546.053 157.417 549.74 156.724 553.898 156.724C557.49 156.724 560.735 157.228 563.634 158.236C566.595 159.244 568.927 160.63 570.628 162.395C572.329 164.096 573.18 165.986 573.18 168.066C573.18 170.019 572.55 171.5 571.29 172.508C570.092 173.516 568.454 174.02 566.375 174.02C565.555 174.02 564.894 173.957 564.39 173.831C563.949 173.642 563.35 173.359 562.594 172.981C562.153 172.729 561.68 172.508 561.176 172.319C560.735 172.13 560.231 172.035 559.664 172.035C559.16 172.035 558.719 172.224 558.341 172.602C557.963 172.918 557.774 173.327 557.774 173.831C557.774 174.776 558.467 175.47 559.853 175.911C563.508 177.108 566.438 178.62 568.643 180.447C570.911 182.275 572.046 184.795 572.046 188.009C572.046 192.105 570.124 195.318 566.28 197.65C562.499 199.981 557.427 201.147 551.063 201.147Z" fill="#FAFAFA"/>
<defs>
<clipPath id="clip0_59_982">
<rect width="236.293" height="236.293" fill="white"/>
</clipPath>
</defs>
</svg>
