<svg width="234" height="88" viewBox="0 0 234 88" fill="none" xmlns="http://www.w3.org/2000/svg">
<rect y="19.8715" width="228" height="68" rx="12" transform="rotate(-5 0 19.8715)" fill="#B784F0"/>
<path d="M32.3978 69.2839C29.7838 69.5126 27.8675 68.1705 26.649 65.2576C25.4624 62.3419 24.6655 58.557 24.2583 53.9027C23.9933 50.8743 24.287 47.9897 25.1394 45.249C26.0209 42.4736 27.5222 40.174 29.6433 38.3502C31.7616 36.4945 34.4466 35.4245 37.6981 35.14C40.3122 34.9113 42.7359 35.2614 44.9694 36.1903C47.2 37.0873 49.0262 38.5015 50.448 40.4329C51.9016 42.3616 52.7455 44.6648 52.9798 47.3425C53.2504 50.4347 52.856 53.0872 51.7969 55.2999C50.7377 57.5127 49.2645 59.2155 47.3773 60.4085C45.4901 61.6016 43.4467 62.2943 41.2471 62.4867C39.4619 62.6429 37.7937 62.4837 36.2424 62.0091C36.5229 63.0125 36.6869 63.7851 36.7343 64.3271C36.9993 67.3555 35.5538 69.0078 32.3978 69.2839ZM39.9292 55.1336C41.0768 55.0332 42.0288 54.5323 42.7851 53.631C43.5705 52.695 43.9144 51.6691 43.8168 50.5534C43.7164 49.4057 43.1996 48.4552 42.2664 47.7016C41.3622 46.9134 40.3363 46.5695 39.1887 46.6699C38.073 46.7676 37.1224 47.2844 36.337 48.2204C35.5488 49.1245 35.2049 50.1504 35.3053 51.298C35.4029 52.4138 35.9197 53.3643 36.8558 54.1497C37.789 54.9033 38.8135 55.2312 39.9292 55.1336ZM67.2125 66.1898C64.8535 66.3962 62.725 66.1166 60.8271 65.3511C58.9292 64.5856 57.3976 63.4187 56.2325 61.8503C55.0965 60.2472 54.4364 58.3936 54.2523 56.2897C54.071 54.2176 54.3978 52.2617 55.2327 50.4219C56.0994 48.5794 57.3793 47.054 59.0724 45.8458C60.7656 44.6377 62.7438 43.9346 65.0072 43.7366C67.0474 43.5581 68.8848 43.8149 70.5193 44.5071C72.1539 45.1993 73.4455 46.1945 74.3943 47.4927C75.3402 48.7591 75.8774 50.1255 76.0057 51.5919C76.2148 53.9827 75.4597 55.8155 73.7403 57.0902C72.0499 58.3303 69.9615 59.0591 67.475 59.2766C65.8173 59.4216 64.3965 59.3371 63.2127 59.0231C64.3057 60.5015 65.952 61.1445 68.1516 60.952C69.0442 60.8739 69.9907 60.6787 70.9913 60.3663C71.3655 60.2372 71.7279 60.1573 72.0786 60.1266C72.7799 60.0653 73.3531 60.1918 73.7982 60.5062C74.2752 60.8178 74.5402 61.2764 74.5932 61.8821C74.6796 62.8704 74.1492 63.7841 73.002 64.6232C71.852 65.4305 69.9222 65.9527 67.2125 66.1898ZM62.8457 53.1769C63.1717 53.5981 63.5835 53.8993 64.0812 54.0806C64.608 54.2273 65.1742 54.2741 65.7799 54.2211C66.4812 54.1598 67.073 53.9474 67.5551 53.584C68.0692 53.2178 68.3039 52.7796 68.2593 52.2696C68.2091 51.6958 67.9267 51.2226 67.4123 50.85C66.9298 50.4746 66.2581 50.3246 65.3974 50.3999C64.5367 50.4752 63.875 50.8061 63.4124 51.3927C62.9788 51.9446 62.79 52.5393 62.8457 53.1769ZM84.2355 64.7005C82.1953 64.879 80.7199 63.8035 79.8094 61.474C78.9308 59.1417 78.3074 55.8715 77.9393 51.6636C77.7719 49.7509 77.7122 48.15 77.76 46.861C77.8369 45.5372 78.1711 44.3998 78.7624 43.4486C79.3829 42.4628 80.4103 41.9071 81.8449 41.7816C82.7375 41.7035 83.5366 41.8424 84.2423 42.1983C84.9799 42.5513 85.4778 43.102 85.736 43.8504C86.3815 43.1514 87.2482 42.5938 88.3361 42.1774C89.4239 41.761 90.6054 41.497 91.8805 41.3854C92.9006 41.2962 93.959 41.4606 95.0556 41.8786C96.1841 42.2938 97.138 42.9171 97.9174 43.7483C98.7259 44.5449 99.1748 45.4532 99.2641 46.4733C99.3533 47.4934 99.0662 48.434 98.4027 49.2951C97.7683 50.1215 96.8614 50.5863 95.6819 50.6895C95.2994 50.723 94.9286 50.7073 94.5696 50.6423C94.2424 50.5746 93.9471 50.504 93.6837 50.4307C93.0239 50.2315 92.5027 50.1486 92.1201 50.182C90.8769 50.2908 89.8203 50.8811 88.9504 51.953C88.1096 52.9903 87.7561 54.274 87.89 55.8041C88.0378 57.4937 88.0968 58.9019 88.0669 60.0288C88.037 61.1557 87.7423 62.1933 87.1828 63.1417C86.6206 64.0582 85.6381 64.5778 84.2355 64.7005ZM112.12 62.2609C109.857 62.4589 107.801 62.0927 105.953 61.1622C104.134 60.1971 102.685 58.8783 101.608 57.2059C100.527 55.5016 99.8987 53.6453 99.723 51.6369C99.5166 49.278 99.8205 47.2437 100.635 45.5343C101.478 43.7901 102.63 42.4527 104.09 41.5218C105.582 40.5882 107.221 40.0433 109.006 39.8871C110.791 39.731 112.419 39.974 113.888 40.6164C113.766 39.9525 113.576 39.2464 113.318 38.4981C113.091 37.747 112.938 37.2786 112.857 37.0929C112.516 36.1269 112.252 35.3148 112.066 34.6566C111.88 33.9983 111.758 33.3344 111.699 32.665C111.582 31.3261 111.891 30.2711 112.627 29.5001C113.362 28.729 114.288 28.2947 115.404 28.1971C117.189 28.0409 118.717 28.8066 119.989 30.4942C121.261 32.1817 122.252 34.3275 122.962 36.9316C123.703 39.5329 124.193 42.1883 124.43 44.898C124.75 48.564 124.222 52.2561 122.845 55.9742C121.497 59.6577 117.922 61.7533 112.12 62.2609ZM111.746 54.6806C112.607 54.6053 113.328 54.221 113.91 53.5277C114.489 52.8025 114.739 51.9935 114.661 51.101C114.583 50.2084 114.196 49.4552 113.5 48.8416C112.804 48.2279 112.025 47.9587 111.164 48.034C110.304 48.1093 109.568 48.511 108.957 49.239C108.378 49.9642 108.128 50.7731 108.206 51.6657C108.284 52.5583 108.671 53.3114 109.367 53.9251C110.092 54.5041 110.885 54.756 111.746 54.6806ZM130.876 37.2511C129.314 37.3877 127.942 36.9456 126.76 35.9247C125.576 34.8719 124.913 33.5326 124.771 31.9068C124.631 30.3129 125.055 28.9107 126.041 27.7001C127.024 26.4577 128.297 25.7681 129.859 25.6315C131.389 25.4976 132.746 25.957 133.931 27.0098C135.144 28.028 135.82 29.334 135.96 30.9279C136.102 32.5537 135.666 33.9892 134.65 35.2344C133.664 36.445 132.406 37.1172 130.876 37.2511ZM132.905 60.4425C131.598 60.5568 130.593 60.2753 129.891 59.5979C129.219 58.8858 128.705 57.7904 128.351 56.3116C128.026 54.7982 127.741 52.6388 127.495 49.8336C127.289 47.4746 127.237 45.5999 127.341 44.2096C127.476 42.8166 127.833 41.7574 128.412 41.0322C128.991 40.307 129.886 39.8914 131.097 39.7854C132.404 39.671 133.394 39.9699 134.067 40.682C134.768 41.3594 135.282 42.4548 135.607 43.9683C135.961 45.447 136.261 47.589 136.507 50.3943C136.713 52.7533 136.749 54.6293 136.613 56.0224C136.51 57.4127 136.169 58.4705 135.59 59.1957C135.011 59.9209 134.116 60.3365 132.905 60.4425ZM151.345 58.8291C149.082 59.0271 147.026 58.6609 145.178 57.7305C143.359 56.7653 141.911 55.4465 140.833 53.7741C139.752 52.0698 139.124 50.2135 138.948 48.2052C138.742 45.8462 139.046 43.812 139.86 42.1025C140.703 40.3584 141.855 39.0209 143.315 38.0901C144.807 37.1565 146.446 36.6116 148.231 36.4554C150.017 36.2992 151.644 36.5423 153.114 37.1847C152.991 36.5208 152.801 35.8147 152.543 35.0663C152.316 34.3152 152.163 33.8468 152.083 33.6611C151.741 32.6952 151.477 31.8831 151.291 31.2248C151.105 30.5665 150.983 29.9027 150.924 29.2332C150.807 27.8943 151.116 26.8394 151.852 26.0683C152.587 25.2973 153.513 24.8629 154.629 24.7653C156.414 24.6091 157.943 25.3748 159.215 27.0624C160.486 28.75 161.477 30.8958 162.187 33.4998C162.928 36.1011 163.418 38.7566 163.655 41.4662C163.976 45.1322 163.447 48.8243 162.07 52.5425C160.722 56.226 157.147 58.3215 151.345 58.8291ZM150.971 51.2489C151.832 51.1736 152.553 50.7893 153.135 50.0959C153.714 49.3707 153.964 48.5618 153.886 47.6692C153.808 46.7766 153.421 46.0235 152.725 45.4098C152.029 44.7962 151.25 44.527 150.39 44.6023C149.529 44.6776 148.793 45.0792 148.182 45.8072C147.603 46.5325 147.353 47.3414 147.431 48.234C147.509 49.1266 147.896 49.8797 148.592 50.4934C149.317 51.0723 150.11 51.3242 150.971 51.2489ZM175.142 56.7472C172.656 56.9647 170.567 56.5853 168.875 55.609C167.181 54.6009 166.24 53.0289 166.053 50.893C165.892 49.0441 166.576 47.5066 168.107 46.2805C169.638 45.0544 171.615 44.3354 174.038 44.1234C174.93 44.0453 175.766 44.0525 176.545 44.1449C177.353 44.2027 177.909 44.3147 178.213 44.4809C178.143 43.6839 177.751 43.0597 177.037 42.6082C176.32 42.1248 175.276 41.9431 173.906 42.0631C173.3 42.116 172.81 42.2071 172.436 42.3362C172.062 42.4653 171.66 42.645 171.23 42.8753C170.801 43.1056 170.399 43.2853 170.025 43.4145C169.682 43.5408 169.208 43.6304 168.603 43.6834C167.583 43.7727 166.763 43.5874 166.145 43.1275C165.524 42.6358 165.166 41.848 165.071 40.7641C164.962 39.5209 165.316 38.4298 166.134 37.491C166.983 36.5494 168.075 35.8115 169.409 35.2771C170.741 34.7109 172.092 34.3678 173.463 34.2479C176.173 34.0108 178.481 34.3229 180.387 35.184C182.322 36.0105 183.793 37.2149 184.799 38.7973C185.836 40.3768 186.443 42.1708 186.619 44.1791C186.713 45.263 186.706 46.2755 186.595 47.2167C186.517 48.1551 186.356 48.8919 186.114 49.4271C186.594 49.7706 186.968 50.1876 187.235 50.6781C187.535 51.1658 187.708 51.6807 187.756 52.2226C187.837 53.1471 187.588 53.9719 187.009 54.6971C186.462 55.4196 185.678 55.8254 184.658 55.9147C183.893 55.9816 183.261 55.9244 182.764 55.7431C182.266 55.5618 181.725 55.2557 181.142 54.825C180.386 55.3729 179.54 55.8002 178.604 56.1071C177.699 56.4111 176.545 56.6245 175.142 56.7472ZM175.676 51.8339C176.345 51.7754 176.859 51.5859 177.216 51.2655C177.606 50.9424 177.782 50.5736 177.746 50.1592C177.71 49.7448 177.472 49.4122 177.032 49.1616C176.625 48.9081 176.086 48.8107 175.417 48.8693C174.747 48.9278 174.218 49.1187 173.829 49.4419C173.471 49.7622 173.31 50.1296 173.347 50.544C173.383 50.9585 173.605 51.2924 174.013 51.5458C174.452 51.7965 175.007 51.8925 175.676 51.8339ZM198.691 54.6869C195.885 54.9324 193.614 54.6654 191.875 53.8859C190.136 53.1065 189.203 51.9836 189.075 50.5172C188.991 49.5608 189.246 48.7997 189.839 48.2339C190.461 47.6334 191.282 47.2885 192.302 47.1993C192.876 47.1491 193.345 47.1883 193.709 47.317C194.074 47.4458 194.444 47.6382 194.82 47.8944C195.095 48.0953 195.316 48.2365 195.483 48.3182C195.683 48.3971 195.91 48.4254 196.165 48.4031C196.835 48.3445 197.149 48.0762 197.107 47.598C197.068 47.1517 196.863 46.8323 196.493 46.6399C196.12 46.4155 195.488 46.1657 194.597 45.8903C193.772 45.6412 193.226 45.4641 192.96 45.3589C191.432 44.7859 190.276 44.0519 189.491 43.1569C188.706 42.2619 188.266 41.2725 188.171 40.1886C188.065 38.9772 188.395 37.792 189.161 36.6328C189.956 35.439 191.121 34.4376 192.656 33.6287C194.221 32.7852 196.055 32.2714 198.159 32.0873C199.976 31.9283 201.64 32.0397 203.151 32.4215C204.694 32.8004 205.935 33.3986 206.874 34.2158C207.81 35.0013 208.324 35.9199 208.416 36.9719C208.502 37.9602 208.249 38.7372 207.656 39.303C207.095 39.8661 206.289 40.1936 205.237 40.2856C204.822 40.3219 204.485 40.3193 204.224 40.2779C203.992 40.2017 203.677 40.0848 203.278 39.927C203.044 39.819 202.795 39.7283 202.531 39.655C202.3 39.5789 202.041 39.5534 201.754 39.5785C201.499 39.6008 201.284 39.716 201.109 39.924C200.932 40.1001 200.854 40.3157 200.877 40.5707C200.919 41.0489 201.3 41.3689 202.021 41.5306C203.923 41.9746 205.472 42.61 206.669 43.4368C207.897 44.2609 208.582 45.4858 208.725 47.1116C208.906 49.1837 208.076 50.8945 206.235 52.2442C204.425 53.591 201.91 54.4052 198.691 54.6869Z" fill="#FAFAFA"/>
</svg>
