<svg width="406" height="103" viewBox="0 0 406 103" fill="none" xmlns="http://www.w3.org/2000/svg">
<rect y="34.9495" width="401" height="68" rx="12" transform="rotate(-5 0 34.9495)" fill="#E5FF6E"/>
<path d="M44.1567 83.2849C43.0728 83.3797 42.1406 83.1882 41.36 82.7104C40.6085 82.198 40.0474 81.4761 39.6768 80.5449C39.3437 79.6746 39.0993 78.7163 38.9435 77.6699C38.8196 76.6207 38.6739 75.1397 38.5066 73.227C38.3504 71.4418 38.155 70.1259 37.9203 69.2791C37.7175 68.4295 37.3451 68.0285 36.8032 68.0759C36.1656 68.1317 35.7444 68.4576 35.5396 69.0537C35.332 69.618 35.2728 70.4101 35.362 71.4303C35.4429 72.3547 35.6973 73.794 36.1253 75.7482C36.1906 76.1279 36.3074 76.728 36.4755 77.5485C36.6437 78.369 36.7514 79.0502 36.7989 79.5921C36.9327 81.1222 36.6769 82.2368 36.0313 82.9357C35.4177 83.6318 34.4573 84.0371 33.1503 84.1514C31.5883 84.2881 30.1596 83.5618 28.8641 81.9727C27.5687 80.3836 26.5239 78.3549 25.7298 75.8867C24.9329 73.3867 24.427 70.9093 24.2123 68.4547C23.9557 65.5219 24.1316 62.7601 24.7401 60.1692C25.3805 57.5755 26.4786 55.4396 28.0342 53.7617C29.6218 52.0809 31.6269 51.1346 34.0497 50.9226C36.0899 50.7441 37.7715 51.2394 39.0944 52.4086C40.4145 53.5458 41.3599 54.9889 41.9305 56.7379C42.1278 54.9539 42.7763 53.3713 43.8761 51.9902C45.0078 50.6063 46.5778 49.8265 48.5862 49.6508C50.977 49.4416 53.0828 50.0123 54.9034 51.3627C56.7531 52.6785 58.24 54.6203 59.3641 57.1881C60.52 59.7532 61.25 62.773 61.554 66.2477C61.752 68.5111 61.6382 70.882 61.2126 73.3606C60.7843 75.8072 60.066 77.8777 59.0578 79.572C58.0496 81.2663 56.8124 82.1776 55.346 82.3059C54.0071 82.4231 52.9577 82.1776 52.1978 81.5695C51.4379 80.9614 50.991 79.8923 50.8572 78.3621C50.7958 77.6608 50.809 76.3427 50.8966 74.4077C50.9732 72.3451 50.9724 70.8676 50.8943 69.975C50.713 67.9029 50.0645 66.9157 48.9488 67.0133C48.375 67.0635 48.0488 67.5578 47.9703 68.4962C47.9237 69.4318 47.975 70.9371 48.1245 73.012C48.2611 74.574 48.3436 75.8838 48.3719 76.9413C48.3974 77.967 48.3362 78.92 48.1883 79.8002C48.0142 80.747 47.5697 81.5408 46.8548 82.1815C46.1718 82.8195 45.2724 83.1872 44.1567 83.2849ZM72.97 80.764C70.4835 80.9816 68.3945 80.6022 66.703 79.6259C65.0087 78.6177 64.0681 77.0457 63.8812 74.9099C63.7194 73.0609 64.404 71.5234 65.935 70.2973C67.466 69.0712 69.4428 68.3522 71.8656 68.1402C72.7582 68.0621 73.594 68.0693 74.373 68.1618C75.1811 68.2196 75.737 68.3316 76.0406 68.4977C75.9709 67.7008 75.579 67.0765 74.8649 66.6251C74.1481 66.1417 73.1043 65.96 71.7335 66.0799C71.1278 66.1329 70.6379 66.2239 70.2637 66.3531C69.8895 66.4822 69.4877 66.6619 69.0581 66.8922C68.6286 67.1225 68.2267 67.3022 67.8525 67.4313C67.5102 67.5576 67.0362 67.6473 66.4305 67.7003C65.4104 67.7895 64.5912 67.6042 63.9727 67.1444C63.3515 66.6526 62.9935 65.8648 62.8987 64.781C62.7899 63.5377 63.1442 62.4467 63.9614 61.5079C64.8106 60.5663 65.9024 59.8283 67.237 59.294C68.5687 58.7278 69.9199 58.3847 71.2907 58.2648C74.0003 58.0277 76.3083 58.3397 78.2146 59.2009C80.15 60.0273 81.6206 61.2317 82.6263 62.8141C83.6639 64.3937 84.2706 66.1876 84.4463 68.196C84.5411 69.2798 84.5333 70.2924 84.423 71.2336C84.3444 72.172 84.1841 72.9088 83.9418 73.4439C84.4215 73.7874 84.7953 74.2044 85.0631 74.6949C85.3627 75.1827 85.5363 75.6975 85.5837 76.2394C85.6645 77.1639 85.4155 77.9888 84.8365 78.714C84.2894 79.4364 83.5058 79.8423 82.4857 79.9315C81.7206 79.9984 81.0892 79.9413 80.5915 79.7599C80.0938 79.5786 79.5531 79.2726 78.9693 78.8418C78.2142 79.3897 77.3682 79.8171 76.4314 80.1239C75.5264 80.4279 74.3727 80.6413 72.97 80.764ZM73.5038 75.8508C74.1733 75.7922 74.6867 75.6028 75.0441 75.2824C75.4335 74.9592 75.61 74.5904 75.5737 74.176C75.5375 73.7616 75.2996 73.4291 74.8601 73.1784C74.4524 72.925 73.9139 72.8276 73.2444 72.8861C72.575 72.9447 72.0456 73.1356 71.6563 73.4587C71.2989 73.7791 71.1383 74.1465 71.1745 74.5609C71.2108 74.9753 71.4327 75.3092 71.8404 75.5627C72.2799 75.8133 72.8344 75.9094 73.5038 75.8508ZM96.5186 78.7038C93.7133 78.9492 91.4414 78.6822 89.7028 77.9028C87.9643 77.1233 87.0308 76.0004 86.9025 74.534C86.8189 73.5777 87.0735 72.8166 87.6665 72.2507C88.2885 71.6502 89.1095 71.3054 90.1297 71.2161C90.7035 71.1659 91.1727 71.2052 91.5373 71.3339C91.9019 71.4626 92.2721 71.6551 92.6478 71.9113C92.9224 72.1121 93.1435 72.2534 93.3113 72.3351C93.5109 72.414 93.7383 72.4423 93.9933 72.42C94.6627 72.3614 94.9765 72.093 94.9347 71.6149C94.8956 71.1686 94.691 70.8492 94.3208 70.6567C93.9479 70.4324 93.3157 70.1825 92.4243 69.9072C91.5995 69.6581 91.0539 69.481 90.7878 69.3758C89.26 68.8027 88.1036 68.0687 87.3186 67.1737C86.5336 66.2787 86.0937 65.2893 85.9989 64.2055C85.8929 62.9941 86.2229 61.8088 86.9888 60.6497C87.7837 59.4558 88.9489 58.4545 90.4843 57.6456C92.0487 56.802 93.8829 56.2882 95.9868 56.1041C97.8039 55.9452 99.4679 56.0566 100.979 56.4383C102.522 56.8173 103.763 57.4154 104.702 58.2327C105.638 59.0181 106.152 59.9368 106.244 60.9888C106.33 61.977 106.077 62.754 105.484 63.3199C104.923 63.8829 104.116 64.2105 103.064 64.3025C102.65 64.3387 102.312 64.3362 102.052 64.2947C101.82 64.2186 101.505 64.1016 101.106 63.9438C100.871 63.8358 100.622 63.7452 100.359 63.6719C100.128 63.5958 99.8683 63.5702 99.5814 63.5953C99.3264 63.6177 99.1116 63.7328 98.9371 63.9408C98.7598 64.1169 98.6823 64.3325 98.7046 64.5875C98.7464 65.0657 99.1277 65.3857 99.8486 65.5475C101.751 65.9914 103.3 66.6268 104.496 67.4537C105.725 68.2777 106.41 69.5027 106.553 71.1284C106.734 73.2005 105.904 74.9114 104.062 76.261C102.253 77.6078 99.7383 78.4221 96.5186 78.7038ZM120.856 76.5264C118.816 76.7048 116.844 76.3795 114.94 75.5502C113.066 74.6863 111.512 73.441 110.277 71.8144C109.043 70.1878 108.332 68.3066 108.145 66.1708C107.95 63.9393 108.306 61.9487 109.213 60.199C110.149 58.4146 111.454 56.9995 113.13 55.9535C114.837 54.9047 116.71 54.2911 118.751 54.1126C120.695 53.9424 122.482 54.1716 124.111 54.8C125.74 55.4284 127.039 56.3266 128.009 57.4946C128.975 58.6306 129.517 59.8681 129.634 61.207C129.732 62.3227 129.457 63.2141 128.808 63.8812C128.192 64.5454 127.214 64.9361 125.875 65.0532C125.174 65.1146 124.621 65.0345 124.216 64.8129C123.811 64.5914 123.379 64.2437 122.92 63.7699C122.496 63.3252 122.098 63.0066 121.728 62.8142C121.387 62.587 120.914 62.4999 120.308 62.5529C119.447 62.6282 118.741 62.9952 118.188 63.6539C117.632 64.2807 117.395 65.0563 117.476 65.9808C117.56 66.9372 117.914 67.6771 118.538 68.2007C119.193 68.7216 119.968 68.9429 120.86 68.8648C121.434 68.8146 121.873 68.6959 122.178 68.5086C122.483 68.3213 122.811 68.0356 123.163 67.6515C123.576 67.2299 123.967 66.9227 124.335 66.7298C124.701 66.5051 125.251 66.3606 125.984 66.2965C127.291 66.1821 128.326 66.445 129.088 67.0849C129.851 67.7249 130.273 68.5071 130.354 69.4316C130.449 70.5154 130.108 71.5732 129.33 72.6048C128.585 73.6337 127.473 74.502 125.993 75.2096C124.513 75.9173 122.801 76.3562 120.856 76.5264ZM144.779 74.5298C142.486 74.7624 140.388 74.4642 138.485 73.6349C136.613 72.8029 135.092 71.5708 133.921 69.9386C132.78 68.2717 132.083 66.3732 131.833 64.2429C131.614 62.1099 131.941 60.1539 132.813 58.3751C133.685 56.5964 134.987 55.1334 136.717 53.9862C138.48 52.8362 140.509 52.1608 142.804 51.96C145.036 51.7647 147.086 52.0672 148.955 52.8674C150.855 53.6648 152.407 54.8781 153.61 56.5075C154.812 58.1369 155.539 60.0167 155.789 62.147C156.002 64.2163 155.674 66.1563 154.805 67.9669C153.933 69.7457 152.617 71.2261 150.857 72.4079C149.129 73.587 147.103 74.2943 144.779 74.5298ZM144.311 67.5359C145.172 67.4606 145.892 67.0603 146.471 66.3351C147.05 65.6099 147.3 64.801 147.222 63.9084C147.144 63.0158 146.758 62.2786 146.065 61.6968C145.369 61.0831 144.591 60.814 143.73 60.8893C142.869 60.9646 142.149 61.3648 141.57 62.0901C140.988 62.7834 140.737 63.5764 140.815 64.469C140.893 65.3615 141.28 66.1147 141.976 66.7283C142.672 67.342 143.451 67.6112 144.311 67.5359ZM179.233 50.6038C179.378 52.2615 178.696 53.4615 177.187 54.2039C175.675 54.9143 173.566 55.404 170.859 55.673C170.897 56.4727 170.994 57.7652 171.15 59.5504C171.309 61.3674 171.549 62.6473 171.871 63.3901C172.078 63.9181 172.348 64.2478 172.681 64.3793C173.045 64.508 173.565 64.575 174.24 64.5802C174.466 64.5925 174.709 64.6194 174.97 64.6609C175.259 64.6677 175.582 64.6876 175.939 64.7207C176.686 64.8159 177.295 65.1642 177.765 65.7655C178.232 66.3349 178.508 67.0978 178.591 68.0542C178.686 69.138 178.202 70.0316 177.139 70.7349C176.077 71.4382 174.573 71.8749 172.628 72.045C170.843 72.2012 169.093 71.8404 167.378 70.9625C165.66 70.0528 164.422 68.7477 163.663 67.0474C162.861 65.2224 162.231 61.6959 161.774 56.4678C159.536 56.5993 157.71 56.47 156.295 56.0799C154.909 55.6551 154.155 54.7573 154.036 53.3865C153.885 51.6651 154.422 50.4617 155.647 49.7763C156.869 49.0591 158.674 48.5799 161.062 48.3389C160.935 45.7803 161.148 43.6255 161.701 41.8746C162.252 40.0918 163.436 39.1209 165.253 38.962C167.102 38.8002 168.367 39.4926 169.048 41.0391C169.762 42.5828 170.208 44.7441 170.387 47.5231C173.285 47.2374 175.44 47.2737 176.853 47.632C178.297 47.9874 179.091 48.978 179.233 50.6038ZM190.132 70.5137C187.645 70.7312 185.556 70.3519 183.865 69.3756C182.17 68.3674 181.23 66.7954 181.043 64.6596C180.881 62.8106 181.566 61.2731 183.097 60.047C184.628 58.8209 186.605 58.1019 189.027 57.8899C189.92 57.8118 190.756 57.819 191.535 57.9115C192.343 57.9692 192.899 58.0812 193.202 58.2474C193.133 57.4504 192.741 56.8262 192.027 56.3747C191.31 55.8914 190.266 55.7097 188.895 55.8296C188.29 55.8826 187.8 55.9736 187.426 56.1027C187.051 56.2318 186.65 56.4115 186.22 56.6418C185.79 56.8722 185.389 57.0519 185.014 57.181C184.672 57.3073 184.198 57.3969 183.592 57.4499C182.572 57.5392 181.753 57.3539 181.135 56.894C180.513 56.4023 180.155 55.6145 180.061 54.5306C179.952 53.2874 180.306 52.1964 181.123 51.2576C181.972 50.316 183.064 49.578 184.399 49.0437C185.731 48.4774 187.082 48.1344 188.453 48.0144C191.162 47.7774 193.47 48.0894 195.376 48.9505C197.312 49.777 198.782 50.9814 199.788 52.5638C200.826 54.1434 201.432 55.9373 201.608 57.9456C201.703 59.0295 201.695 60.042 201.585 60.9832C201.506 61.9216 201.346 62.6584 201.104 63.1936C201.583 63.5371 201.957 63.9541 202.225 64.4446C202.525 64.9324 202.698 65.4472 202.745 65.9891C202.826 66.9136 202.577 67.7384 201.998 68.4637C201.451 69.1861 200.668 69.5919 199.647 69.6812C198.882 69.7481 198.251 69.6909 197.753 69.5096C197.256 69.3283 196.715 69.0223 196.131 68.5915C195.376 69.1394 194.53 69.5668 193.593 69.8736C192.688 70.1776 191.534 70.391 190.132 70.5137ZM190.666 65.6005C191.335 65.5419 191.849 65.3524 192.206 65.0321C192.595 64.7089 192.772 64.3401 192.736 63.9257C192.699 63.5113 192.461 63.1787 192.022 62.9281C191.614 62.6747 191.076 62.5772 190.406 62.6358C189.737 62.6944 189.207 62.8852 188.818 63.2084C188.461 63.5288 188.3 63.8962 188.336 64.3106C188.373 64.725 188.595 65.0589 189.002 65.3123C189.442 65.563 189.996 65.659 190.666 65.6005ZM226.516 67.3787C223.902 67.6074 221.985 66.2653 220.767 63.3524C219.58 60.4367 218.783 56.6518 218.376 51.9976C218.111 48.9691 218.405 46.0846 219.257 43.3438C220.139 40.5685 221.64 38.2689 223.761 36.4451C225.879 34.5894 228.564 33.5193 231.816 33.2348C234.43 33.0061 236.854 33.3562 239.087 34.2851C241.318 35.1821 243.144 36.5963 244.566 38.5277C246.019 40.4564 246.863 42.7596 247.098 45.4374C247.368 48.5296 246.974 51.182 245.915 53.3947C244.856 55.6075 243.382 57.3104 241.495 58.5034C239.608 59.6964 237.565 60.3891 235.365 60.5816C233.58 60.7378 231.912 60.5785 230.36 60.1039C230.641 61.1073 230.805 61.88 230.852 62.4219C231.117 65.4503 229.672 67.1026 226.516 67.3787ZM234.047 53.2284C235.195 53.128 236.147 52.6272 236.903 51.7258C237.688 50.7898 238.032 49.7639 237.935 48.6482C237.834 47.5006 237.317 46.55 236.384 45.7965C235.48 45.0083 234.454 44.6644 233.307 44.7648C232.191 44.8624 231.24 45.3792 230.455 46.3152C229.667 47.2194 229.323 48.2452 229.423 49.3929C229.521 50.5086 230.038 51.4592 230.974 52.2446C231.907 52.9981 232.931 53.3261 234.047 53.2284ZM261.33 64.2846C258.971 64.491 256.843 64.2115 254.945 63.446C253.047 62.6805 251.516 61.5135 250.35 59.9451C249.214 58.342 248.554 56.4885 248.37 54.3845C248.189 52.3124 248.516 50.3565 249.351 48.5167C250.217 46.6742 251.497 45.1488 253.19 43.9407C254.883 42.7325 256.862 42.0294 259.125 41.8314C261.165 41.6529 263.003 41.9097 264.637 42.6019C266.272 43.2941 267.563 44.2893 268.512 45.5875C269.458 46.8539 269.995 48.2203 270.124 49.6867C270.333 52.0776 269.578 53.9104 267.858 55.1851C266.168 56.4251 264.079 57.1539 261.593 57.3714C259.935 57.5165 258.514 57.432 257.331 57.118C258.424 58.5963 260.07 59.2393 262.269 59.0468C263.162 58.9688 264.109 58.7735 265.109 58.4611C265.483 58.332 265.846 58.2521 266.196 58.2214C266.898 58.1601 267.471 58.2866 267.916 58.601C268.393 58.9126 268.658 59.3713 268.711 59.977C268.797 60.9652 268.267 61.8789 267.12 62.7181C265.97 63.5254 264.04 64.0476 261.33 64.2846ZM256.964 51.2717C257.29 51.6929 257.701 51.9941 258.199 52.1755C258.726 52.3221 259.292 52.3689 259.898 52.3159C260.599 52.2546 261.191 52.0422 261.673 51.6788C262.187 51.3126 262.422 50.8745 262.377 50.3644C262.327 49.7906 262.045 49.3174 261.53 48.9448C261.048 48.5695 260.376 48.4194 259.515 48.4947C258.655 48.57 257.993 48.901 257.53 49.4875C257.097 50.0394 256.908 50.6341 256.964 51.2717ZM278.353 62.7953C276.313 62.9738 274.838 61.8983 273.927 59.5688C273.049 57.2365 272.425 53.9664 272.057 49.7584C271.89 47.8458 271.83 46.2449 271.878 44.9558C271.955 43.6321 272.289 42.4946 272.88 41.5434C273.501 40.5576 274.528 40.002 275.963 39.8764C276.855 39.7984 277.654 39.9372 278.36 40.2931C279.098 40.6461 279.596 41.1968 279.854 41.9452C280.499 41.2463 281.366 40.6886 282.454 40.2722C283.542 39.8558 284.723 39.5918 285.998 39.4803C287.019 39.391 288.077 39.5554 289.173 39.9734C290.302 40.3887 291.256 41.0119 292.035 41.8431C292.844 42.6397 293.293 43.548 293.382 44.5681C293.471 45.5882 293.184 46.5288 292.521 47.3899C291.886 48.2164 290.979 48.6812 289.8 48.7844C289.417 48.8178 289.046 48.8021 288.687 48.7371C288.36 48.6694 288.065 48.5989 287.802 48.5255C287.142 48.3263 286.621 48.2434 286.238 48.2769C284.995 48.3856 283.938 48.976 283.068 50.0479C282.227 51.0851 281.874 52.3688 282.008 53.8989C282.156 55.5885 282.215 56.9967 282.185 58.1236C282.155 59.2505 281.86 60.2881 281.301 61.2365C280.738 62.153 279.756 62.6726 278.353 62.7953ZM306.238 60.3557C303.975 60.5537 301.919 60.1875 300.071 59.257C298.252 58.2919 296.803 56.9731 295.725 55.3007C294.645 53.5964 294.017 51.7401 293.841 49.7318C293.634 47.3728 293.938 45.3386 294.752 43.6291C295.596 41.885 296.747 40.5475 298.208 39.6167C299.7 38.6831 301.339 38.1382 303.124 37.982C304.909 37.8258 306.537 38.0689 308.006 38.7112C307.884 38.0474 307.694 37.3413 307.435 36.5929C307.209 35.8418 307.056 35.3734 306.975 35.1877C306.634 34.2218 306.37 33.4097 306.184 32.7514C305.998 32.0931 305.875 31.4292 305.817 30.7598C305.7 29.4209 306.009 28.3659 306.745 27.5949C307.48 26.8239 308.406 26.3895 309.522 26.2919C311.307 26.1357 312.835 26.9014 314.107 28.589C315.379 30.2765 316.37 32.4224 317.08 35.0264C317.821 37.6277 318.31 40.2831 318.548 42.9928C318.868 46.6588 318.34 50.3509 316.963 54.0691C315.615 57.7526 312.04 59.8481 306.238 60.3557ZM305.864 52.7755C306.725 52.7002 307.446 52.3159 308.028 51.6225C308.607 50.8973 308.857 50.0884 308.779 49.1958C308.701 48.3032 308.314 47.5501 307.618 46.9364C306.922 46.3227 306.143 46.0536 305.282 46.1289C304.422 46.2042 303.686 46.6058 303.075 47.3338C302.496 48.0591 302.246 48.868 302.324 49.7606C302.402 50.6531 302.789 51.4063 303.485 52.0199C304.21 52.5989 305.003 52.8508 305.864 52.7755ZM324.993 35.3459C323.431 35.4826 322.06 35.0404 320.878 34.0195C319.694 32.9667 319.031 31.6274 318.888 30.0016C318.749 28.4077 319.172 27.0055 320.159 25.7949C321.142 24.5525 322.415 23.8629 323.977 23.7263C325.507 23.5924 326.864 24.0519 328.048 25.1047C329.262 26.1228 329.938 27.4288 330.078 29.0227C330.22 30.6485 329.783 32.084 328.768 33.3292C327.782 34.5398 326.524 35.212 324.993 35.3459ZM327.022 58.5373C325.715 58.6517 324.711 58.3701 324.009 57.6927C323.337 56.9806 322.823 55.8852 322.469 54.4064C322.144 52.893 321.859 50.7337 321.613 47.9284C321.407 45.5694 321.355 43.6948 321.458 42.3045C321.594 40.9114 321.951 39.8522 322.53 39.127C323.109 38.4018 324.004 37.9862 325.215 37.8802C326.522 37.7659 327.512 38.0647 328.185 38.7768C328.886 39.4542 329.4 40.5497 329.725 42.0631C330.079 43.5418 330.379 45.6839 330.624 48.4891C330.831 50.8481 330.866 52.7242 330.731 54.1172C330.628 55.5075 330.287 56.5653 329.708 57.2905C329.129 58.0157 328.234 58.4313 327.022 58.5373ZM345.463 56.924C343.2 57.122 341.144 56.7558 339.296 55.8253C337.477 54.8602 336.028 53.5414 334.951 51.869C333.87 50.1647 333.242 48.3083 333.066 46.3C332.86 43.941 333.163 41.9068 333.978 40.1973C334.821 38.4532 335.973 37.1157 337.433 36.1849C338.925 35.2513 340.564 34.7064 342.349 34.5502C344.134 34.394 345.762 34.6371 347.231 35.2795C347.109 34.6156 346.919 33.9095 346.661 33.1612C346.434 32.41 346.281 31.9416 346.2 31.7559C345.859 30.79 345.595 29.9779 345.409 29.3196C345.223 28.6613 345.101 27.9975 345.042 27.328C344.925 25.9892 345.234 24.9342 345.97 24.1631C346.705 23.3921 347.631 22.9578 348.747 22.8602C350.532 22.704 352.06 23.4697 353.332 25.1572C354.604 26.8448 355.595 28.9906 356.305 31.5947C357.046 34.1959 357.536 36.8514 357.773 39.561C358.093 43.227 357.565 46.9191 356.188 50.6373C354.84 54.3208 351.265 56.4164 345.463 56.924ZM345.089 49.3437C345.95 49.2684 346.671 48.8841 347.253 48.1908C347.832 47.4655 348.082 46.6566 348.004 45.764C347.926 44.8714 347.539 44.1183 346.843 43.5047C346.147 42.891 345.368 42.6218 344.508 42.6971C343.647 42.7724 342.911 43.1741 342.3 43.9021C341.721 44.6273 341.471 45.4362 341.549 46.3288C341.627 47.2214 342.014 47.9745 342.71 48.5882C343.435 49.1672 344.228 49.419 345.089 49.3437ZM369.26 54.842C366.774 55.0595 364.685 54.6802 362.993 53.7039C361.299 52.6957 360.358 51.1237 360.171 48.9879C360.01 47.1389 360.694 45.6014 362.225 44.3753C363.756 43.1492 365.733 42.4302 368.156 42.2182C369.048 42.1401 369.884 42.1473 370.663 42.2398C371.471 42.2976 372.027 42.4095 372.331 42.5757C372.261 41.7787 371.869 41.1545 371.155 40.703C370.438 40.2197 369.394 40.038 368.024 40.1579C367.418 40.2109 366.928 40.3019 366.554 40.431C366.18 40.5601 365.778 40.7398 365.348 40.9702C364.919 41.2005 364.517 41.3802 364.143 41.5093C363.8 41.6356 363.326 41.7252 362.721 41.7782C361.701 41.8675 360.881 41.6822 360.263 41.2223C359.642 40.7306 359.284 39.9428 359.189 38.859C359.08 37.6157 359.434 36.5247 360.252 35.5859C361.101 34.6443 362.193 33.9063 363.527 33.372C364.859 32.8057 366.21 32.4627 367.581 32.3427C370.29 32.1057 372.598 32.4177 374.505 33.2788C376.44 34.1053 377.911 35.3097 378.916 36.8921C379.954 38.4717 380.561 40.2656 380.736 42.2739C380.831 43.3578 380.823 44.3703 380.713 45.3115C380.635 46.25 380.474 46.9867 380.232 47.5219C380.712 47.8654 381.085 48.2824 381.353 48.7729C381.653 49.2607 381.826 49.7755 381.874 50.3174C381.955 51.2419 381.706 52.0667 381.127 52.792C380.579 53.5144 379.796 53.9202 378.776 54.0095C378.011 54.0764 377.379 54.0192 376.882 53.8379C376.384 53.6566 375.843 53.3506 375.259 52.9198C374.504 53.4677 373.658 53.8951 372.721 54.2019C371.817 54.5059 370.663 54.7193 369.26 54.842ZM369.794 49.9288C370.463 49.8702 370.977 49.6807 371.334 49.3604C371.724 49.0372 371.9 48.6684 371.864 48.254C371.828 47.8396 371.59 47.507 371.15 47.2564C370.743 47.003 370.204 46.9055 369.535 46.9641C368.865 47.0227 368.336 47.2135 367.946 47.5367C367.589 47.8571 367.428 48.2245 367.465 48.6389C367.501 49.0533 367.723 49.3872 368.13 49.6407C368.57 49.8913 369.124 49.9873 369.794 49.9288Z" fill="#212121"/>
</svg>
