<svg width="248" height="89" viewBox="0 0 248 89" fill="none" xmlns="http://www.w3.org/2000/svg">
<rect y="21.1788" width="243" height="68" rx="12" transform="rotate(-5 0 21.1788)" fill="#E5FF6E"/>
<path d="M44.1567 69.5142C43.0728 69.6091 42.1406 69.4176 41.36 68.9398C40.6085 68.4273 40.0474 67.7055 39.6768 66.7742C39.3437 65.904 39.0993 64.9456 38.9435 63.8992C38.8196 62.85 38.6739 61.3691 38.5066 59.4564C38.3504 57.6712 38.155 56.3552 37.9203 55.5085C37.7175 54.6589 37.3451 54.2578 36.8032 54.3053C36.1656 54.361 35.7444 54.687 35.5396 55.2831C35.332 55.8473 35.2728 56.6395 35.362 57.6596C35.4429 58.5841 35.6973 60.0234 36.1253 61.9775C36.1906 62.3573 36.3074 62.9574 36.4755 63.7779C36.6437 64.5983 36.7514 65.2795 36.7989 65.8215C36.9327 67.3516 36.6769 68.4661 36.0313 69.1651C35.4177 69.8612 34.4573 70.2664 33.1503 70.3808C31.5883 70.5175 30.1596 69.7912 28.8641 68.2021C27.5687 66.6129 26.5239 64.5843 25.7298 62.1161C24.9329 59.616 24.427 57.1387 24.2123 54.6841C23.9557 51.7513 24.1316 48.9894 24.7401 46.3985C25.3805 43.8048 26.4786 41.669 28.0342 39.991C29.6218 38.3103 31.6269 37.3639 34.0497 37.152C36.0899 36.9735 37.7715 37.4688 39.0944 38.6379C40.4145 39.7752 41.3599 41.2183 41.9305 42.9672C42.1278 41.1833 42.7763 39.6007 43.8761 38.2196C45.0078 36.8357 46.5778 36.0559 48.5862 35.8802C50.977 35.671 53.0828 36.2417 54.9034 37.5921C56.7531 38.9079 58.24 40.8497 59.3641 43.4175C60.52 45.9825 61.25 49.0024 61.554 52.4771C61.752 54.7405 61.6382 57.1114 61.2126 59.5899C60.7843 62.0366 60.066 64.1071 59.0578 65.8014C58.0496 67.4957 56.8124 68.407 55.346 68.5353C54.0071 68.6524 52.9577 68.407 52.1978 67.7989C51.4379 67.1908 50.991 66.1217 50.8572 64.5915C50.7958 63.8902 50.809 62.572 50.8966 60.637C50.9732 58.5745 50.9724 57.0969 50.8943 56.2044C50.713 54.1323 50.0645 53.145 48.9488 53.2427C48.375 53.2929 48.0488 53.7872 47.9703 54.7256C47.9237 55.6612 47.975 57.1664 48.1245 59.2413C48.2611 60.8034 48.3436 62.1132 48.3719 63.1707C48.3974 64.1964 48.3362 65.1494 48.1883 66.0296C48.0142 66.9764 47.5697 67.7701 46.8548 68.4109C46.1718 69.0488 45.2724 69.4166 44.1567 69.5142ZM72.97 66.9934C70.4835 67.2109 68.3945 66.8316 66.703 65.8553C65.0087 64.8471 64.0681 63.2751 63.8812 61.1393C63.7194 59.2903 64.404 57.7528 65.935 56.5267C67.466 55.3006 69.4428 54.5816 71.8656 54.3696C72.7582 54.2915 73.594 54.2987 74.373 54.3912C75.1811 54.4489 75.737 54.5609 76.0406 54.7271C75.9709 53.9301 75.579 53.3059 74.8649 52.8544C74.1481 52.3711 73.1043 52.1894 71.7335 52.3093C71.1278 52.3623 70.6379 52.4533 70.2637 52.5824C69.8895 52.7115 69.4877 52.8912 69.0581 53.1215C68.6286 53.3519 68.2267 53.5316 67.8525 53.6607C67.5102 53.787 67.0362 53.8766 66.4305 53.9296C65.4104 54.0189 64.5912 53.8336 63.9727 53.3737C63.3515 52.882 62.9935 52.0942 62.8987 51.0103C62.7899 49.7671 63.1442 48.6761 63.9614 47.7373C64.8106 46.7957 65.9024 46.0577 67.237 45.5234C68.5687 44.9571 69.9199 44.6141 71.2907 44.4941C74.0003 44.2571 76.3083 44.5691 78.2146 45.4302C80.15 46.2567 81.6206 47.4611 82.6263 49.0435C83.6639 50.6231 84.2706 52.417 84.4463 54.4253C84.5411 55.5092 84.5333 56.5217 84.423 57.4629C84.3444 58.4013 84.1841 59.1381 83.9418 59.6733C84.4215 60.0168 84.7953 60.4338 85.0631 60.9243C85.3627 61.4121 85.5363 61.9269 85.5837 62.4688C85.6645 63.3933 85.4155 64.2181 84.8365 64.9434C84.2894 65.6658 83.5058 66.0716 82.4857 66.1609C81.7206 66.2278 81.0892 66.1706 80.5915 65.9893C80.0938 65.808 79.5531 65.502 78.9693 65.0712C78.2142 65.6191 77.3682 66.0465 76.4314 66.3533C75.5264 66.6573 74.3727 66.8707 72.97 66.9934ZM73.5038 62.0802C74.1733 62.0216 74.6867 61.8321 75.0441 61.5118C75.4335 61.1886 75.61 60.8198 75.5737 60.4054C75.5375 59.991 75.2996 59.6584 74.8601 59.4078C74.4524 59.1544 73.9139 59.0569 73.2444 59.1155C72.575 59.1741 72.0456 59.3649 71.6563 59.6881C71.2989 60.0085 71.1383 60.3759 71.1745 60.7903C71.2108 61.2047 71.4327 61.5386 71.8404 61.792C72.2799 62.0427 72.8344 62.1387 73.5038 62.0802ZM96.5186 64.9332C93.7133 65.1786 91.4414 64.9116 89.7028 64.1321C87.9643 63.3527 87.0308 62.2298 86.9025 60.7634C86.8189 59.807 87.0735 59.0459 87.6665 58.4801C88.2885 57.8796 89.1095 57.5347 90.1297 57.4455C90.7035 57.3953 91.1727 57.4345 91.5373 57.5633C91.9019 57.692 92.2721 57.8844 92.6478 58.1407C92.9224 58.3415 93.1435 58.4828 93.3113 58.5645C93.5109 58.6434 93.7383 58.6717 93.9933 58.6493C94.6627 58.5908 94.9765 58.3224 94.9347 57.8442C94.8956 57.3979 94.691 57.0785 94.3208 56.8861C93.9479 56.6617 93.3157 56.4119 92.4243 56.1365C91.5995 55.8875 91.0539 55.7103 90.7878 55.6051C89.26 55.0321 88.1036 54.2981 87.3186 53.4031C86.5336 52.5081 86.0937 51.5187 85.9989 50.4348C85.8929 49.2235 86.2229 48.0382 86.9888 46.879C87.7837 45.6852 88.9489 44.6838 90.4843 43.875C92.0487 43.0314 93.8829 42.5176 95.9868 42.3335C97.8039 42.1745 99.4679 42.2859 100.979 42.6677C102.522 43.0467 103.763 43.6448 104.702 44.4621C105.638 45.2475 106.152 46.1662 106.244 47.2182C106.33 48.2064 106.077 48.9834 105.484 49.5492C104.923 50.1123 104.116 50.4398 103.064 50.5319C102.65 50.5681 102.312 50.5655 102.052 50.5241C101.82 50.448 101.505 50.331 101.106 50.1732C100.871 50.0652 100.622 49.9746 100.359 49.9012C100.128 49.8251 99.8683 49.7996 99.5814 49.8247C99.3264 49.847 99.1116 49.9622 98.9371 50.1702C98.7598 50.3463 98.6823 50.5619 98.7046 50.8169C98.7464 51.2951 99.1277 51.6151 99.8486 51.7769C101.751 52.2208 103.3 52.8562 104.496 53.683C105.725 54.5071 106.41 55.732 106.553 57.3578C106.734 59.4299 105.904 61.1408 104.062 62.4904C102.253 63.8372 99.7383 64.6515 96.5186 64.9332ZM120.856 62.7557C118.816 62.9342 116.844 62.6088 114.94 61.7796C113.066 60.9157 111.512 59.6704 110.277 58.0438C109.043 56.4172 108.332 54.536 108.145 52.4001C107.95 50.1687 108.306 48.1781 109.213 46.4284C110.149 44.644 111.454 43.2288 113.13 42.1828C114.837 41.1341 116.71 40.5204 118.751 40.3419C120.695 40.1718 122.482 40.401 124.111 41.0294C125.74 41.6578 127.039 42.556 128.009 43.7239C128.975 44.86 129.517 46.0975 129.634 47.4364C129.732 48.5521 129.457 49.4435 128.808 50.1105C128.192 50.7748 127.214 51.1655 125.875 51.2826C125.174 51.344 124.621 51.2639 124.216 51.0423C123.811 50.8208 123.379 50.4731 122.92 49.9993C122.496 49.5546 122.098 49.236 121.728 49.0435C121.387 48.8164 120.914 48.7293 120.308 48.7823C119.447 48.8576 118.741 49.2246 118.188 49.8833C117.632 50.5101 117.395 51.2857 117.476 52.2102C117.56 53.1665 117.914 53.9065 118.538 54.4301C119.193 54.9509 119.968 55.1723 120.86 55.0942C121.434 55.044 121.873 54.9253 122.178 54.738C122.483 54.5507 122.811 54.265 123.163 53.8809C123.576 53.4593 123.967 53.1521 124.335 52.9592C124.701 52.7345 125.251 52.59 125.984 52.5259C127.291 52.4115 128.326 52.6743 129.088 53.3143C129.851 53.9543 130.273 54.7365 130.354 55.6609C130.449 56.7448 130.108 57.8026 129.33 58.8342C128.585 59.8631 127.473 60.7313 125.993 61.439C124.513 62.1467 122.801 62.5856 120.856 62.7557ZM144.779 60.7591C142.486 60.9918 140.388 60.6935 138.485 59.8643C136.613 59.0322 135.092 57.8001 133.921 56.1679C132.78 54.5011 132.083 52.6026 131.833 50.4723C131.614 48.3392 131.941 46.3833 132.813 44.6045C133.685 42.8257 134.987 41.3627 136.717 40.2155C138.48 39.0655 140.509 38.3901 142.804 38.1893C145.036 37.9941 147.086 38.2966 148.955 39.0967C150.855 39.8941 152.407 41.1075 153.61 42.7369C154.812 44.3663 155.539 46.2461 155.789 48.3764C156.002 50.4457 155.674 52.3856 154.805 54.1963C153.933 55.9751 152.617 57.4554 150.857 58.6373C149.129 59.8164 147.103 60.5237 144.779 60.7591ZM144.311 53.7652C145.172 53.6899 145.892 53.2897 146.471 52.5645C147.05 51.8392 147.3 51.0303 147.222 50.1377C147.144 49.2451 146.758 48.508 146.065 47.9262C145.369 47.3125 144.591 47.0433 143.73 47.1186C142.869 47.1939 142.149 47.5942 141.57 48.3194C140.988 49.0128 140.737 49.8057 140.815 50.6983C140.893 51.5909 141.28 52.344 141.976 52.9577C142.672 53.5714 143.451 53.8405 144.311 53.7652ZM179.233 36.8332C179.378 38.4909 178.696 39.6909 177.187 40.4332C175.675 41.1437 173.566 41.6334 170.859 41.9023C170.897 42.7021 170.994 43.9945 171.15 45.7797C171.309 47.5968 171.549 48.8767 171.871 49.6195C172.078 50.1475 172.348 50.4772 172.681 50.6087C173.045 50.7374 173.565 50.8044 174.24 50.8095C174.466 50.8219 174.709 50.8488 174.97 50.8902C175.259 50.897 175.582 50.9169 175.939 50.95C176.686 51.0453 177.295 51.3935 177.765 51.9949C178.232 52.5643 178.508 53.3272 178.591 54.2835C178.686 55.3674 178.202 56.261 177.139 56.9643C176.077 57.6676 174.573 58.1043 172.628 58.2744C170.843 58.4306 169.093 58.0697 167.378 57.1919C165.66 56.2821 164.422 54.9771 163.663 53.2768C162.861 51.4518 162.231 47.9252 161.774 42.6972C159.536 42.8287 157.71 42.6993 156.295 42.3092C154.909 41.8844 154.155 40.9866 154.036 39.6159C153.885 37.8945 154.422 36.6911 155.647 36.0057C156.869 35.2885 158.674 34.8093 161.062 34.5683C160.935 32.0096 161.148 29.8549 161.701 28.104C162.252 26.3212 163.436 25.3503 165.253 25.1913C167.102 25.0296 168.367 25.7219 169.048 27.2684C169.762 28.8121 170.208 30.9735 170.387 33.7525C173.285 33.4668 175.44 33.5031 176.853 33.8613C178.297 34.2168 179.091 35.2074 179.233 36.8332ZM190.132 56.7431C187.645 56.9606 185.556 56.5812 183.865 55.6049C182.17 54.5968 181.23 53.0248 181.043 50.8889C180.881 49.04 181.566 47.5025 183.097 46.2764C184.628 45.0503 186.605 44.3312 189.027 44.1193C189.92 44.0412 190.756 44.0484 191.535 44.1408C192.343 44.1986 192.899 44.3106 193.202 44.4768C193.133 43.6798 192.741 43.0556 192.027 42.6041C191.31 42.1207 190.266 41.939 188.895 42.0589C188.29 42.1119 187.8 42.203 187.426 42.3321C187.051 42.4612 186.65 42.6409 186.22 42.8712C185.79 43.1015 185.389 43.2812 185.014 43.4103C184.672 43.5367 184.198 43.6263 183.592 43.6793C182.572 43.7685 181.753 43.5832 181.135 43.1234C180.513 42.6317 180.155 41.8439 180.061 40.76C179.952 39.5168 180.306 38.4257 181.123 37.4869C181.972 36.5453 183.064 35.8074 184.399 35.273C185.731 34.7068 187.082 34.3637 188.453 34.2438C191.162 34.0067 193.47 34.3188 195.376 35.1799C197.312 36.0064 198.782 37.2108 199.788 38.7931C200.826 40.3727 201.432 42.1667 201.608 44.175C201.703 45.2589 201.695 46.2714 201.585 47.2126C201.506 48.151 201.346 48.8878 201.104 49.4229C201.583 49.7664 201.957 50.1835 202.225 50.674C202.525 51.1617 202.698 51.6766 202.745 52.2185C202.826 53.143 202.577 53.9678 201.998 54.693C201.451 55.4155 200.668 55.8213 199.647 55.9105C198.882 55.9775 198.251 55.9203 197.753 55.739C197.256 55.5577 196.715 55.2516 196.131 54.8209C195.376 55.3688 194.53 55.7961 193.593 56.1029C192.688 56.407 191.534 56.6203 190.132 56.7431ZM190.666 51.8298C191.335 51.7713 191.849 51.5818 192.206 51.2614C192.595 50.9383 192.772 50.5695 192.736 50.1551C192.699 49.7406 192.461 49.4081 192.022 49.1575C191.614 48.904 191.076 48.8066 190.406 48.8652C189.737 48.9237 189.207 49.1146 188.818 49.4378C188.461 49.7581 188.3 50.1255 188.336 50.5399C188.373 50.9544 188.595 51.2883 189.002 51.5417C189.442 51.7924 189.996 51.8884 190.666 51.8298ZM213.68 54.6828C210.875 54.9283 208.603 54.6613 206.865 53.8818C205.126 53.1024 204.193 51.9794 204.064 50.513C203.981 49.5567 204.235 48.7956 204.828 48.2298C205.45 47.6293 206.271 47.2844 207.291 47.1952C207.865 47.145 208.334 47.1842 208.699 47.3129C209.064 47.4416 209.434 47.6341 209.81 47.8903C210.084 48.0912 210.305 48.2324 210.473 48.3141C210.673 48.393 210.9 48.4213 211.155 48.399C211.825 48.3404 212.138 48.0721 212.097 47.5939C212.057 47.1476 211.853 46.8282 211.483 46.6357C211.11 46.4114 210.478 46.1615 209.586 45.8862C208.761 45.6371 208.216 45.46 207.95 45.3548C206.422 44.7818 205.265 44.0478 204.48 43.1528C203.695 42.2578 203.256 41.2684 203.161 40.1845C203.055 38.9731 203.385 37.7879 204.151 36.6287C204.946 35.4349 206.111 34.4335 207.646 33.6246C209.211 32.7811 211.045 32.2672 213.149 32.0832C214.966 31.9242 216.63 32.0356 218.141 32.4173C219.684 32.7963 220.925 33.3944 221.863 34.2117C222.799 34.9971 223.313 35.9158 223.405 36.9678C223.492 37.956 223.239 38.7331 222.646 39.2989C222.085 39.8619 221.278 40.1895 220.226 40.2815C219.812 40.3178 219.474 40.3152 219.214 40.2737C218.982 40.1976 218.667 40.0807 218.267 39.9229C218.033 39.8149 217.784 39.7242 217.521 39.6509C217.289 39.5748 217.03 39.5493 216.743 39.5744C216.488 39.5967 216.273 39.7119 216.099 39.9199C215.922 40.096 215.844 40.3116 215.866 40.5666C215.908 41.0448 216.29 41.3647 217.01 41.5265C218.912 41.9705 220.462 42.6058 221.658 43.4327C222.887 44.2568 223.572 45.4817 223.714 47.1075C223.896 49.1796 223.066 50.8904 221.224 52.24C219.415 53.5869 216.9 54.4011 213.68 54.6828Z" fill="#212121"/>
</svg>
