<svg width="765" height="237" viewBox="0 0 765 237" fill="none" xmlns="http://www.w3.org/2000/svg">
<g clip-path="url(#clip0_59_962)">
<path d="M234.005 120.548C234.005 151.266 221.803 180.725 200.082 202.446C178.361 224.167 148.902 236.369 118.184 236.369C95.6659 236.451 73.6261 229.872 54.8374 217.46C38.6842 206.983 25.4166 192.622 16.2493 175.692C7.08202 158.761 2.30774 139.801 2.36352 120.548C2.34598 111.725 3.29716 102.927 5.19995 94.3114C11.4804 66.4442 27.8377 41.8811 51.1287 25.3418C74.4198 8.80258 103.001 1.4541 131.382 4.70843C159.762 7.96276 185.938 21.5903 204.881 42.9725C223.823 64.3546 234.196 91.9829 234.005 120.548V120.548Z" fill="#E5FF6E"/>
<path d="M203.513 121.021C202.783 118.091 201.586 115.297 199.968 112.748C198.237 110.197 196.17 107.891 193.822 105.893C189.122 101.827 183.537 98.9129 177.513 97.384L174.913 96.9112C176.588 90.494 175.981 83.6939 173.196 77.6748C170.41 71.6557 165.62 66.7918 159.644 63.9154C153.667 61.039 146.877 60.329 140.435 61.9069C133.993 63.4848 128.3 67.2525 124.33 72.5652C121.802 66.4871 117.137 61.5446 111.214 58.6706C105.292 55.7965 98.5226 55.1898 92.1836 56.9649H91.2382C88.9439 57.5983 86.7822 58.6391 84.8562 60.0376C80.0781 63.24 76.4174 67.8526 74.3839 73.2331C72.3503 78.6136 72.045 84.4943 73.5105 90.0565L69.7286 89.8201H66.1831C56.6138 90.487 47.6946 94.9042 41.3643 102.111C41.1099 102.75 40.7044 103.318 40.1825 103.766C40.1825 103.829 40.1576 103.889 40.1132 103.933C40.0689 103.977 40.0088 104.002 39.9461 104.002C36.593 108.209 34.5394 113.301 34.0369 118.657C32.1459 132.839 41.1279 147.731 56.0192 153.876C55.5465 174.204 55.0737 194.532 54.8373 214.859C73.5997 227.355 95.6415 234.017 118.184 234.005C138.061 234.012 157.602 228.883 174.913 219.114L172.785 164.985C195.477 159.549 208.004 138.039 203.513 121.021ZM139.93 87.4565C141.348 82.9654 145.367 80.129 148.912 81.0745C152.458 82.02 153.876 86.7473 152.458 91.4747C151.04 96.2021 147.021 99.0385 143.476 97.8567C139.93 96.6748 138.512 92.1838 139.93 87.4565ZM94.7837 73.0379C98.0929 71.8561 102.348 74.4562 104.002 79.1835C105.657 83.9109 104.238 88.4019 100.929 89.5838C97.6201 90.7656 93.3655 88.1656 91.7109 83.6746C90.0563 79.1835 91.2382 74.4562 94.7837 73.0379ZM75.4015 123.857C72.8014 126.457 67.8376 125.512 64.5285 121.966C61.2193 118.421 60.7466 113.457 63.583 110.857C64.6147 109.916 65.9689 109.408 67.3649 109.439H69.0195C71.1329 109.947 73.0341 111.104 74.456 112.748C75.7031 113.939 76.5705 115.471 76.949 117.154C77.3275 118.836 77.2003 120.593 76.5833 122.203L75.4015 123.857ZM146.312 140.876C141.821 151.985 119.366 140.639 117.711 140.876C110.857 141.349 95.7292 149.622 89.1109 140.876C86.0381 136.858 88.6381 129.53 94.311 122.912C99.9838 116.293 110.148 109.439 119.839 109.912C129.53 110.384 139.457 118.894 144.185 127.403C148.912 135.912 147.73 137.33 146.312 140.876ZM172.549 129.53C170.787 130.187 168.858 130.241 167.062 129.685C165.266 129.129 163.704 127.994 162.622 126.457V125.985C162.485 125.863 162.4 125.694 162.385 125.512C161.44 121.966 164.276 117.948 169.004 116.766C169.98 116.383 171.03 116.222 172.076 116.293C173.56 116.134 175.056 116.463 176.336 117.231C177.616 117.999 178.61 119.164 179.167 120.548C180.349 124.094 177.276 128.112 172.549 129.53Z" fill="#FAFAFA" stroke="#212121" stroke-width="5.90923" stroke-linecap="round" stroke-linejoin="round"/>
<path d="M41.3647 102.348C41.1103 102.987 40.7048 103.554 40.1829 104.002C40.1829 104.065 40.158 104.125 40.1137 104.169C40.0693 104.214 40.0092 104.239 39.9465 104.239L41.3647 102.348Z" fill="#FAFAFA" stroke="#212121" stroke-width="5.90923" stroke-linecap="round" stroke-linejoin="round"/>
<path d="M76.5834 122.439L75.4016 123.857C72.8015 126.457 67.8378 125.512 64.765 121.966C61.6922 118.421 60.7467 113.457 63.5831 110.857C64.6149 109.916 65.969 109.408 67.365 109.439H69.0196C71.1331 109.947 73.0343 111.104 74.4561 112.748C75.7506 113.958 76.6472 115.532 77.0271 117.263C77.4069 118.993 77.2522 120.798 76.5834 122.439V122.439Z" fill="#FAFAFA" stroke="#212121" stroke-width="5.90923" stroke-linecap="round" stroke-linejoin="round"/>
<path d="M146.312 140.876C141.821 151.985 119.366 140.639 117.711 140.876C110.857 141.349 95.729 149.621 89.1107 140.876C86.0379 136.858 88.6379 129.53 94.3108 122.912C99.9836 116.293 110.148 109.439 119.839 109.911C129.53 110.384 139.694 118.893 144.185 127.403C148.676 135.912 147.73 137.33 146.312 140.876Z" fill="#FAFAFA" stroke="#212121" stroke-width="5.90923" stroke-linecap="round" stroke-linejoin="round"/>
<path d="M100.929 89.584C97.6201 91.0023 93.3655 88.1658 91.7109 83.6748C90.0563 79.1838 91.2382 74.4564 94.7837 73.0382C98.3292 71.62 102.348 74.4564 104.002 79.1838C105.657 83.9112 104.238 88.4022 100.929 89.584Z" fill="#FAFAFA" stroke="#212121" stroke-width="5.90923" stroke-linecap="round" stroke-linejoin="round"/>
<path d="M152.458 91.475C151.04 96.2024 147.021 99.0389 143.476 97.857C139.93 96.6752 138.512 92.1841 139.93 87.4568C141.349 82.7294 145.367 80.1293 148.912 81.0748C152.458 82.0203 153.876 86.7477 152.458 91.475Z" fill="#FAFAFA" stroke="#212121" stroke-width="5.90923" stroke-linecap="round" stroke-linejoin="round"/>
<path d="M172.549 129.53C168.294 130.712 164.276 129.294 162.858 126.457C162.623 125.988 162.623 125.988 162.388 125.517C161.44 121.966 164.276 117.948 169.003 116.766C169.98 116.383 171.03 116.222 172.076 116.294C173.588 116.157 175.105 116.492 176.417 117.254C177.73 118.017 178.773 119.168 179.404 120.548C180.349 124.094 177.276 128.112 172.549 129.53Z" fill="#FAFAFA" stroke="#212121" stroke-width="5.90923" stroke-linecap="round" stroke-linejoin="round"/>
<path d="M100.929 89.584C97.6201 91.0023 93.3655 88.1658 91.7109 83.6748C90.0563 79.1838 91.2382 74.4564 94.7837 73.0382C98.3292 71.62 102.348 74.4564 104.002 79.1838C105.657 83.9112 104.238 88.4022 100.929 89.584Z" fill="#212121"/>
<path d="M152.458 91.475C151.04 96.2024 147.021 99.0389 143.476 97.857C139.93 96.6752 138.512 92.1841 139.93 87.4568C141.349 82.7294 145.367 80.1293 148.912 81.0748C152.458 82.0203 153.876 86.7477 152.458 91.475Z" fill="#212121"/>
<path d="M172.549 129.53C168.294 130.712 164.276 129.294 162.858 126.457C162.623 125.988 162.623 125.988 162.388 125.517C161.44 121.966 164.276 117.948 169.003 116.766C169.98 116.383 171.03 116.222 172.076 116.294C173.588 116.157 175.105 116.492 176.417 117.254C177.73 118.017 178.773 119.168 179.404 120.548C180.349 124.094 177.276 128.112 172.549 129.53Z" fill="#212121"/>
<path d="M76.5834 122.439L75.4016 123.857C72.8015 126.457 67.8378 125.512 64.765 121.966C61.6922 118.421 60.7467 113.457 63.5831 110.857C64.6149 109.916 65.969 109.408 67.365 109.439H69.0196C71.1331 109.947 73.0343 111.104 74.4561 112.748C75.7506 113.958 76.6472 115.532 77.0271 117.263C77.4069 118.993 77.2522 120.798 76.5834 122.439V122.439Z" fill="#212121"/>
<path d="M146.312 140.876C141.821 151.985 119.366 140.639 117.711 140.876C110.857 141.349 95.729 149.621 89.1107 140.876C86.0379 136.858 88.6379 129.53 94.3108 122.912C99.9836 116.293 110.148 109.439 119.839 109.911C129.53 110.384 139.694 118.893 144.185 127.403C148.676 135.912 147.73 137.33 146.312 140.876Z" fill="#212121"/>
<path d="M88.875 169.949C96.8925 174.322 105.764 176.903 114.876 177.513C122.72 177.918 130.572 176.876 138.04 174.44" fill="#FAFAFA"/>
<path d="M88.875 169.949C96.8925 174.322 105.764 176.903 114.876 177.513C122.72 177.918 130.572 176.876 138.04 174.44" stroke="#212121" stroke-width="5.90923" stroke-linecap="round" stroke-linejoin="round"/>
</g>
<path d="M300.709 105.995C294.531 105.995 288.985 104.766 284.068 102.308C279.215 99.7867 275.37 96.0679 272.533 91.1514C269.697 86.1719 268.279 80.0893 268.279 72.9037C268.279 67.1048 269.602 61.684 272.25 56.6415C274.897 51.599 278.553 47.5649 283.217 44.5394C287.882 41.5139 293.113 40.0011 298.912 40.0011C304.396 40.0011 309.281 41.0411 313.567 43.1212C317.853 45.1382 321.162 47.9116 323.495 51.4414C325.89 54.9712 327.087 58.9106 327.087 63.2598C327.087 66.0332 326.268 68.4284 324.629 70.4455C323.053 72.4625 320.784 73.471 317.822 73.471C315.616 73.471 313.914 73.0928 312.716 72.3364C311.519 71.58 310.258 70.4139 308.934 68.8381C307.611 67.2623 306.318 66.0963 305.058 65.3399C303.86 64.5205 302.095 64.1108 299.763 64.1108C296.801 64.1108 294.248 65.2453 292.105 67.5145C290.025 69.7206 288.985 72.431 288.985 75.6456C288.985 79.1123 289.867 82.0433 291.632 84.4385C293.46 86.7707 295.918 87.9368 299.007 87.9368C301.402 87.9368 303.293 87.5901 304.68 86.8967C306.129 86.2034 307.642 85.1949 309.218 83.8712C310.542 82.7366 311.739 81.8857 312.811 81.3184C313.945 80.7511 315.332 80.4675 316.971 80.4675C319.492 80.4675 321.478 81.2554 322.927 82.8312C324.377 84.344 325.102 86.3294 325.102 88.7877C325.102 91.6871 324.03 94.4605 321.887 97.1079C319.807 99.7552 316.908 101.898 313.189 103.537C309.47 105.176 305.31 105.995 300.709 105.995ZM351.654 106.279C347.116 106.342 343.05 105.397 339.458 103.443C335.928 101.489 333.154 98.8097 331.137 95.406C329.183 91.9393 328.143 88.0943 328.017 83.8712C327.954 79.6481 328.931 75.8662 330.948 72.5255C332.965 69.1848 335.77 66.5375 339.363 64.5835C343.019 62.6295 347.116 61.6525 351.654 61.6525C356.066 61.6525 360.037 62.598 363.567 64.489C367.16 66.3799 369.996 69.0272 372.076 72.431C374.157 75.8347 375.26 79.6481 375.386 83.8712C375.449 87.9683 374.472 91.7187 372.455 95.1224C370.438 98.4631 367.601 101.142 363.945 103.159C360.353 105.176 356.256 106.216 351.654 106.279ZM351.938 92.475C353.64 92.475 355.121 91.8132 356.382 90.4895C357.642 89.1659 358.273 87.6216 358.273 85.8567C358.273 84.0918 357.642 82.5791 356.382 81.3184C355.121 79.9948 353.64 79.3329 351.938 79.3329C350.236 79.3329 348.755 79.9948 347.494 81.3184C346.233 82.5791 345.603 84.0918 345.603 85.8567C345.603 87.6216 346.233 89.1659 347.494 90.4895C348.755 91.8132 350.236 92.475 351.938 92.475ZM415.592 106.184C413.323 106.184 411.621 105.554 410.486 104.293C409.415 103.033 408.753 101.489 408.501 99.6607C408.249 97.8327 408.123 95.4691 408.123 92.5696C408.123 88.8507 407.619 85.9828 406.61 83.9658C405.602 81.9487 403.963 80.9402 401.694 80.9402C399.613 80.9402 398.038 81.9487 396.966 83.9658C395.958 85.9197 395.453 88.6301 395.453 92.0969C395.453 95.4375 395.359 97.9588 395.17 99.6607C394.981 101.363 394.35 102.875 393.279 104.199C392.207 105.46 390.442 106.09 387.984 106.09C384.391 106.09 381.87 103.789 380.42 99.1879C378.971 94.5236 378.246 89.0713 378.246 82.8312C378.246 67.7036 381.429 60.1398 387.795 60.1398C389.56 60.1398 391.01 60.581 392.144 61.4634C393.279 62.2828 394.067 63.4804 394.508 65.0562C395.327 64.1738 396.588 63.3859 398.29 62.6925C400.055 61.9992 401.914 61.6525 403.868 61.6525C410.802 61.6525 415.97 64.1738 419.374 69.2163C422.841 74.2589 424.574 81.0978 424.574 89.7332C424.574 94.8387 423.912 98.8728 422.589 101.835C421.265 104.735 418.933 106.184 415.592 106.184ZM451.19 106.184C446.526 106.184 442.397 105.27 438.804 103.443C435.211 101.615 432.406 99.0619 430.389 95.7842C428.435 92.4435 427.458 88.6931 427.458 84.533C427.458 80.436 428.435 76.6541 430.389 73.1873C432.406 69.7206 435.18 66.9472 438.71 64.8671C442.239 62.7871 446.242 61.7471 450.717 61.7471C454.751 61.7471 458.313 62.5665 461.401 64.2053C464.49 65.8441 466.853 68.0187 468.492 70.7291C470.131 73.3764 470.95 76.1498 470.95 79.0493C470.95 83.7767 469.154 87.2434 465.561 89.4495C462.031 91.5926 457.808 92.6641 452.892 92.6641C449.614 92.6641 446.841 92.2544 444.572 91.435C446.463 94.5236 449.583 96.0679 453.932 96.0679C455.697 96.0679 457.588 95.8472 459.605 95.406C460.361 95.2169 461.086 95.1224 461.779 95.1224C463.166 95.1224 464.269 95.4691 465.088 96.1624C465.971 96.8558 466.412 97.8012 466.412 98.9988C466.412 100.953 465.215 102.655 462.819 104.104C460.424 105.491 456.548 106.184 451.19 106.184ZM444.855 79.9002C445.423 80.7827 446.179 81.4445 447.124 81.8857C448.133 82.2639 449.236 82.453 450.434 82.453C451.82 82.453 453.018 82.1378 454.026 81.5075C455.098 80.8772 455.634 80.0578 455.634 79.0493C455.634 77.9147 455.161 76.9377 454.215 76.1183C453.333 75.2989 452.041 74.8892 450.339 74.8892C448.637 74.8892 447.282 75.425 446.273 76.4965C445.328 77.505 444.855 78.6396 444.855 79.9002ZM496.973 106.09C492.939 106.09 489.126 105.113 485.533 103.159C482.003 101.142 479.167 98.4315 477.024 95.0278C474.881 91.6241 473.809 87.8107 473.809 83.5876C473.809 79.1753 474.849 75.3304 476.929 72.0528C479.072 68.7121 481.877 66.1593 485.344 64.3944C488.874 62.6295 492.655 61.7471 496.689 61.7471C500.534 61.7471 504.001 62.5035 507.09 64.0162C510.178 65.529 512.573 67.5145 514.275 69.9727C515.977 72.3679 516.828 74.8892 516.828 77.5365C516.828 79.7426 516.135 81.4445 514.748 82.6421C513.424 83.8397 511.439 84.4385 508.792 84.4385C507.405 84.4385 506.333 84.1864 505.577 83.6821C504.821 83.1779 504.033 82.4215 503.213 81.413C502.457 80.4675 501.732 79.7741 501.039 79.3329C500.408 78.8287 499.494 78.5765 498.297 78.5765C496.595 78.5765 495.145 79.1753 493.948 80.373C492.75 81.5075 492.151 82.9888 492.151 84.8167C492.151 86.7076 492.718 88.2204 493.853 89.355C495.051 90.4895 496.532 91.0568 498.297 91.0568C499.431 91.0568 500.314 90.8993 500.944 90.5841C501.574 90.2689 502.268 89.7647 503.024 89.0713C503.907 88.3149 504.726 87.7792 505.482 87.464C506.239 87.0858 507.342 86.8967 508.792 86.8967C511.376 86.8967 513.361 87.5901 514.748 88.9768C516.135 90.3635 516.828 91.9708 516.828 93.7987C516.828 95.9418 515.977 97.9588 514.275 99.8498C512.637 101.741 510.304 103.253 507.279 104.388C504.253 105.523 500.818 106.09 496.973 106.09ZM565.837 65.2453C565.837 68.523 564.293 70.7606 561.204 71.9582C558.116 73.0928 553.893 73.6916 548.535 73.7546C548.472 75.3304 548.44 77.8832 548.44 81.413C548.44 85.0058 548.692 87.5586 549.197 89.0713C549.512 90.1429 549.985 90.8362 550.615 91.1514C551.308 91.4665 552.317 91.6871 553.64 91.8132C554.082 91.8762 554.554 91.9708 555.059 92.0969C555.626 92.1599 556.256 92.2544 556.95 92.3805C558.399 92.6957 559.534 93.4836 560.353 94.7442C561.173 95.9418 561.582 97.4861 561.582 99.377C561.582 101.52 560.479 103.19 558.273 104.388C556.067 105.586 553.042 106.184 549.197 106.184C545.667 106.184 542.295 105.176 539.08 103.159C535.865 101.079 533.659 98.3055 532.462 94.8387C531.201 91.1199 530.571 84.0918 530.571 73.7546C526.159 73.6286 522.597 73.0613 519.887 72.0528C517.24 70.9812 515.916 69.0903 515.916 66.3799C515.916 62.9762 517.177 60.707 519.698 59.5725C522.219 58.3749 525.843 57.7446 530.571 57.6815C530.76 52.639 531.548 48.4474 532.934 45.1067C534.321 41.703 536.811 40.0011 540.404 40.0011C544.06 40.0011 546.423 41.5769 547.495 44.7285C548.629 47.8801 549.134 52.1978 549.008 57.6815C554.743 57.6185 558.967 58.0597 561.677 59.0052C564.45 59.9507 565.837 62.0307 565.837 65.2453ZM583.806 106.184C578.889 106.184 574.855 105.081 571.703 102.875C568.552 100.606 566.976 97.36 566.976 93.1369C566.976 89.481 568.583 86.5816 571.798 84.4385C575.013 82.2954 579.015 81.2239 583.806 81.2239C585.57 81.2239 587.209 81.3815 588.722 81.6966C590.298 81.9487 591.369 82.2639 591.937 82.6421C591.937 81.0663 591.275 79.7741 589.951 78.7656C588.627 77.6941 586.61 77.1583 583.9 77.1583C582.702 77.1583 581.725 77.2529 580.969 77.442C580.213 77.6311 579.393 77.9147 578.511 78.2929C577.628 78.6711 576.809 78.9547 576.053 79.1438C575.359 79.3329 574.414 79.4275 573.216 79.4275C571.199 79.4275 569.623 78.9232 568.489 77.9147C567.354 76.8432 566.787 75.2359 566.787 73.0928C566.787 70.6345 567.669 68.5545 569.434 66.8526C571.262 65.1508 573.531 63.8901 576.242 63.0707C578.952 62.1883 581.662 61.7471 584.373 61.7471C589.73 61.7471 594.206 62.7556 597.799 64.7726C601.454 66.7266 604.133 69.3424 605.835 72.62C607.6 75.8977 608.482 79.522 608.482 83.493C608.482 85.6361 608.293 87.6216 607.915 89.4495C607.6 91.2774 607.159 92.6957 606.591 93.7042C607.474 94.4605 608.136 95.343 608.577 96.3515C609.081 97.36 609.333 98.4 609.333 99.4716C609.333 101.299 608.703 102.875 607.442 104.199C606.245 105.523 604.637 106.184 602.62 106.184C601.108 106.184 599.879 105.964 598.933 105.523C597.988 105.081 596.979 104.388 595.908 103.443C594.332 104.388 592.598 105.081 590.707 105.523C588.88 105.964 586.579 106.184 583.806 106.184ZM585.696 96.6351C587.02 96.6351 588.06 96.3515 588.817 95.7842C589.636 95.2169 590.046 94.5236 590.046 93.7042C590.046 92.8848 589.636 92.1914 588.817 91.6241C588.06 91.0568 587.02 90.7732 585.696 90.7732C584.373 90.7732 583.301 91.0568 582.482 91.6241C581.725 92.1914 581.347 92.8848 581.347 93.7042C581.347 94.5236 581.725 95.2169 582.482 95.7842C583.301 96.3515 584.373 96.6351 585.696 96.6351ZM650.484 106.184C648.215 106.184 646.513 105.554 645.378 104.293C644.307 103.033 643.645 101.489 643.393 99.6607C643.141 97.8327 643.014 95.4691 643.014 92.5696C643.014 88.8507 642.51 85.9828 641.502 83.9658C640.493 81.9487 638.854 80.9402 636.585 80.9402C634.505 80.9402 632.929 81.9487 631.858 83.9658C630.849 85.9197 630.345 88.6301 630.345 92.0969C630.345 95.4375 630.251 97.9588 630.061 99.6607C629.872 101.363 629.242 102.875 628.171 104.199C627.099 105.46 625.334 106.09 622.876 106.09C619.283 106.09 616.762 103.789 615.312 99.1879C613.862 94.5236 613.137 89.0713 613.137 82.8312C613.137 67.7036 616.321 60.1398 622.687 60.1398C624.452 60.1398 625.901 60.581 627.036 61.4634C628.171 62.2828 628.958 63.4804 629.4 65.0562C630.219 64.1738 631.48 63.3859 633.182 62.6925C634.946 61.9992 636.806 61.6525 638.76 61.6525C645.693 61.6525 650.862 64.1738 654.266 69.2163C657.732 74.2589 659.466 81.0978 659.466 89.7332C659.466 94.8387 658.804 98.8728 657.48 101.835C656.157 104.735 653.824 106.184 650.484 106.184ZM684.853 106.184C680.377 106.184 676.406 105.113 672.94 102.97C669.536 100.764 666.92 97.9273 665.092 94.4605C663.264 90.9308 662.35 87.1804 662.35 83.2094C662.35 78.545 663.296 74.6055 665.187 71.3909C667.141 68.1133 669.63 65.6866 672.656 64.1108C675.744 62.535 679.054 61.7471 682.583 61.7471C686.113 61.7471 689.265 62.5035 692.038 64.0162C691.912 62.6925 691.66 61.2743 691.282 59.7616C690.967 58.2488 690.746 57.3033 690.62 56.9251C690.116 54.9712 689.737 53.3323 689.485 52.0087C689.233 50.685 689.107 49.3613 689.107 48.0377C689.107 45.3903 689.895 43.3733 691.471 41.9866C693.047 40.5999 694.938 39.9066 697.144 39.9066C700.674 39.9066 703.541 41.6715 705.748 45.2012C707.954 48.731 709.529 53.1117 710.475 58.3434C711.483 63.575 711.988 68.8697 711.988 74.2274C711.988 81.476 710.317 88.6301 706.977 95.6897C703.699 102.686 696.324 106.184 684.853 106.184ZM685.42 91.2459C687.122 91.2459 688.603 90.6156 689.864 89.355C691.124 88.0313 691.755 86.487 691.755 84.7221C691.755 82.9573 691.124 81.413 689.864 80.0893C688.603 78.7656 687.122 78.1038 685.42 78.1038C683.718 78.1038 682.205 78.7656 680.882 80.0893C679.621 81.413 678.991 82.9573 678.991 84.7221C678.991 86.487 679.621 88.0313 680.882 89.355C682.205 90.6156 683.718 91.2459 685.42 91.2459ZM738.524 106.279C733.986 106.342 729.92 105.397 726.327 103.443C722.797 101.489 720.024 98.8097 718.007 95.406C716.053 91.9393 715.013 88.0943 714.887 83.8712C714.824 79.6481 715.801 75.8662 717.818 72.5255C719.835 69.1848 722.64 66.5375 726.233 64.5835C729.888 62.6295 733.986 61.6525 738.524 61.6525C742.936 61.6525 746.907 62.598 750.437 64.489C754.03 66.3799 756.866 69.0272 758.946 72.431C761.026 75.8347 762.129 79.6481 762.255 83.8712C762.318 87.9683 761.341 91.7187 759.324 95.1224C757.307 98.4631 754.471 101.142 750.815 103.159C747.222 105.176 743.125 106.216 738.524 106.279ZM738.807 92.475C740.509 92.475 741.991 91.8132 743.251 90.4895C744.512 89.1659 745.142 87.6216 745.142 85.8567C745.142 84.0918 744.512 82.5791 743.251 81.3184C741.991 79.9948 740.509 79.3329 738.807 79.3329C737.106 79.3329 735.624 79.9948 734.364 81.3184C733.103 82.5791 732.473 84.0918 732.473 85.8567C732.473 87.6216 733.103 89.1659 734.364 90.4895C735.624 91.8132 737.106 92.475 738.807 92.475ZM320.374 135.19C323.904 135.19 326.615 136.419 328.506 138.878C330.46 141.336 331.783 144.929 332.477 149.656C333.17 154.32 333.517 160.529 333.517 168.282C333.517 176.035 333.17 182.243 332.477 186.908C331.783 191.509 330.491 195.007 328.6 197.403C326.709 199.798 323.967 200.995 320.374 200.995C316.088 200.995 313.063 199.167 311.298 195.512C309.533 191.856 308.493 186.183 308.178 178.493C306.224 178.556 303.009 178.588 298.534 178.588H293.617C293.239 186.277 292.168 191.95 290.403 195.606C288.638 199.262 285.612 201.09 281.326 201.09C277.733 201.09 274.992 199.892 273.101 197.497C271.21 195.102 269.918 191.604 269.224 187.002C268.594 182.338 268.279 176.098 268.279 168.282C268.279 160.466 268.594 154.226 269.224 149.561C269.918 144.897 271.21 141.367 273.101 138.972C274.992 136.514 277.733 135.285 281.326 135.285C284.415 135.285 286.842 136.262 288.606 138.216C290.371 140.107 291.6 142.88 292.294 146.536C293.05 150.129 293.523 154.793 293.712 160.529H300.425C303.892 160.529 306.444 160.56 308.083 160.624C308.272 151.925 309.218 145.527 310.92 141.43C312.685 137.27 315.836 135.19 320.374 135.19ZM361.147 201.184C356.545 201.184 352.511 200.05 349.045 197.781C345.578 195.449 342.899 192.234 341.008 188.137C339.18 183.977 338.266 179.186 338.266 173.766C338.266 168.471 339.117 164.311 340.819 161.285C342.521 158.26 344.884 156.747 347.91 156.747C353.268 156.747 355.947 159.489 355.947 164.973C355.947 166.107 355.915 167.116 355.852 167.998C355.789 168.818 355.726 169.543 355.663 170.173C355.411 172.694 355.285 174.711 355.285 176.224C355.285 178.997 355.852 181.109 356.987 182.559C358.121 184.008 359.508 184.733 361.147 184.733C362.848 184.733 364.235 184.04 365.307 182.653C366.441 181.203 367.009 179.06 367.009 176.224C367.009 174.207 366.914 172.347 366.725 170.646C366.662 170.078 366.599 169.259 366.536 168.187C366.473 167.053 366.441 166.013 366.441 165.067C366.441 159.52 369.12 156.747 374.478 156.747C377.503 156.747 379.836 158.26 381.474 161.285C383.176 164.248 384.027 168.408 384.027 173.766C384.027 182.149 382.073 188.83 378.165 193.81C374.257 198.726 368.584 201.184 361.147 201.184ZM410.933 201.184C406.269 201.184 402.14 200.27 398.548 198.443C394.955 196.615 392.15 194.062 390.133 190.784C388.179 187.444 387.202 183.693 387.202 179.533C387.202 175.436 388.179 171.654 390.133 168.187C392.15 164.721 394.923 161.947 398.453 159.867C401.983 157.787 405.985 156.747 410.461 156.747C414.495 156.747 418.056 157.566 421.144 159.205C424.233 160.844 426.597 163.019 428.236 165.729C429.874 168.376 430.694 171.15 430.694 174.049C430.694 178.777 428.897 182.243 425.305 184.45C421.775 186.593 417.552 187.664 412.635 187.664C409.358 187.664 406.584 187.254 404.315 186.435C406.206 189.524 409.326 191.068 413.675 191.068C415.44 191.068 417.331 190.847 419.348 190.406C420.104 190.217 420.829 190.122 421.523 190.122C422.909 190.122 424.012 190.469 424.832 191.162C425.714 191.856 426.156 192.801 426.156 193.999C426.156 195.953 424.958 197.655 422.563 199.104C420.167 200.491 416.291 201.184 410.933 201.184ZM404.599 174.9C405.166 175.783 405.922 176.444 406.868 176.886C407.876 177.264 408.979 177.453 410.177 177.453C411.564 177.453 412.761 177.138 413.77 176.508C414.841 175.877 415.377 175.058 415.377 174.049C415.377 172.915 414.904 171.938 413.959 171.118C413.076 170.299 411.784 169.889 410.082 169.889C408.381 169.889 407.025 170.425 406.017 171.496C405.071 172.505 404.599 173.64 404.599 174.9ZM446.461 200.995C443.309 200.995 440.946 199.829 439.37 197.497C437.794 195.165 436.723 191.73 436.155 187.191C435.651 182.59 435.399 176.192 435.399 167.998C435.399 160.119 435.588 153.974 435.966 149.561C436.408 145.149 437.416 141.619 438.992 138.972C440.631 136.325 443.152 135.001 446.556 135.001C449.959 135.001 452.449 136.325 454.025 138.972C455.664 141.619 456.672 145.149 457.05 149.561C457.492 153.974 457.712 160.119 457.712 167.998C457.712 175.751 457.366 182.023 456.672 186.813C456.042 191.541 454.907 195.102 453.269 197.497C451.63 199.829 449.361 200.995 446.461 200.995ZM473.514 200.995C470.363 200.995 467.999 199.829 466.423 197.497C464.847 195.165 463.776 191.73 463.209 187.191C462.704 182.59 462.452 176.192 462.452 167.998C462.452 160.119 462.641 153.974 463.019 149.561C463.461 145.149 464.469 141.619 466.045 138.972C467.684 136.325 470.205 135.001 473.609 135.001C477.013 135.001 479.502 136.325 481.078 138.972C482.717 141.619 483.725 145.149 484.104 149.561C484.545 153.974 484.765 160.119 484.765 167.998C484.765 175.751 484.419 182.023 483.725 186.813C483.095 191.541 481.961 195.102 480.322 197.497C478.683 199.829 476.414 200.995 473.514 200.995ZM504.677 201.184C499.761 201.184 495.727 200.081 492.575 197.875C489.424 195.606 487.848 192.36 487.848 188.137C487.848 184.481 489.455 181.582 492.67 179.438C495.884 177.295 499.887 176.224 504.677 176.224C506.442 176.224 508.081 176.381 509.594 176.697C511.17 176.949 512.241 177.264 512.808 177.642C512.808 176.066 512.147 174.774 510.823 173.766C509.499 172.694 507.482 172.158 504.772 172.158C503.574 172.158 502.597 172.253 501.841 172.442C501.084 172.631 500.265 172.915 499.383 173.293C498.5 173.671 497.681 173.955 496.924 174.144C496.231 174.333 495.286 174.427 494.088 174.427C492.071 174.427 490.495 173.923 489.361 172.915C488.226 171.843 487.659 170.236 487.659 168.093C487.659 165.635 488.541 163.554 490.306 161.853C492.134 160.151 494.403 158.89 497.113 158.071C499.824 157.188 502.534 156.747 505.245 156.747C510.602 156.747 515.078 157.756 518.67 159.773C522.326 161.727 525.005 164.342 526.707 167.62C528.472 170.898 529.354 174.522 529.354 178.493C529.354 180.636 529.165 182.622 528.787 184.45C528.472 186.277 528.031 187.696 527.463 188.704C528.346 189.461 529.008 190.343 529.449 191.351C529.953 192.36 530.205 193.4 530.205 194.472C530.205 196.299 529.575 197.875 528.314 199.199C527.117 200.523 525.509 201.184 523.492 201.184C521.98 201.184 520.75 200.964 519.805 200.523C518.859 200.081 517.851 199.388 516.779 198.443C515.204 199.388 513.47 200.081 511.579 200.523C509.751 200.964 507.451 201.184 504.677 201.184ZM506.568 191.635C507.892 191.635 508.932 191.351 509.688 190.784C510.508 190.217 510.917 189.524 510.917 188.704C510.917 187.885 510.508 187.191 509.688 186.624C508.932 186.057 507.892 185.773 506.568 185.773C505.245 185.773 504.173 186.057 503.354 186.624C502.597 187.191 502.219 187.885 502.219 188.704C502.219 189.524 502.597 190.217 503.354 190.784C504.173 191.351 505.245 191.635 506.568 191.635ZM551.239 201.184C545.692 201.184 541.28 200.27 538.002 198.443C534.725 196.615 533.086 194.251 533.086 191.351C533.086 189.461 533.716 188.011 534.977 187.002C536.301 185.931 537.971 185.395 539.988 185.395C541.122 185.395 542.036 185.553 542.73 185.868C543.423 186.183 544.116 186.624 544.81 187.191C545.314 187.633 545.724 187.948 546.039 188.137C546.417 188.326 546.858 188.421 547.363 188.421C548.686 188.421 549.348 187.948 549.348 187.002C549.348 186.12 549.001 185.458 548.308 185.017C547.615 184.513 546.417 183.914 544.715 183.22C543.139 182.59 542.099 182.149 541.595 181.897C538.696 180.51 536.553 178.871 535.166 176.98C533.779 175.089 533.086 173.072 533.086 170.929C533.086 168.534 533.937 166.265 535.639 164.122C537.404 161.916 539.862 160.151 543.013 158.827C546.228 157.44 549.915 156.747 554.075 156.747C557.668 156.747 560.914 157.251 563.814 158.26C566.776 159.268 569.109 160.655 570.81 162.42C572.512 164.122 573.363 166.013 573.363 168.093C573.363 170.047 572.733 171.528 571.472 172.537C570.275 173.545 568.636 174.049 566.556 174.049C565.736 174.049 565.074 173.986 564.57 173.86C564.129 173.671 563.53 173.387 562.774 173.009C562.333 172.757 561.86 172.537 561.356 172.347C560.914 172.158 560.41 172.064 559.843 172.064C559.339 172.064 558.897 172.253 558.519 172.631C558.141 172.946 557.952 173.356 557.952 173.86C557.952 174.806 558.645 175.499 560.032 175.94C563.688 177.138 566.619 178.651 568.825 180.479C571.094 182.306 572.229 184.828 572.229 188.042C572.229 192.139 570.306 195.354 566.461 197.686C562.679 200.018 557.605 201.184 551.239 201.184Z" fill="#B784F0"/>
<defs>
<clipPath id="clip0_59_962">
<rect width="236.369" height="236.369" fill="white"/>
</clipPath>
</defs>
</svg>
